<?xml version="1.0" encoding="utf-8"?>
<!-- Generator: Adobe Illustrator 18.1.0, SVG Export Plug-In . SVG Version: 6.00 Build 0)  -->
<svg version="1.1" id="Layer_1" xmlns="http://www.w3.org/2000/svg" xmlns:xlink="http://www.w3.org/1999/xlink" x="0px" y="0px"
	 viewBox="0 0 552.6 177.4" enable-background="new 0 0 552.6 177.4" xml:space="preserve">
<g>
	<g>
		<path fill="#FFFFFF" d="M0,0h67.3C81,0,92.6,1.6,101.8,4.6c9.2,3.3,16.7,7.5,22,12.9c5.6,5.6,9.2,11.9,11.4,19.3
			c2.3,7.3,3.3,15.4,3.3,23.6c0,8.6-1.3,16.7-3.6,24c-2.3,7.5-6.3,13.7-11.4,19.3c-5.3,5.6-12.9,9.8-22,12.9
			c-9.2,3.3-20.7,4.6-34.2,4.6H53v52.2H0.1L0,0L0,0z M53.2,79.1H68c8.1,0,13.7-1.6,16.7-4.6c3-3,4.6-7.5,4.6-13.7
			c0-6.3-1.6-10.4-4.6-13.7c-3-3.3-8.6-4.6-16.7-4.6H53.2L53.2,79.1L53.2,79.1z"/>
		<path fill="#FFFFFF" d="M267.1,131.3c-2.6,15.8-9.6,27.3-20,34.7c-10.4,7.5-24.6,11.2-42.4,11.2c-22.6,0-39.3-5.8-50.5-17.7
			s-16.7-27.9-16.7-48.9c0-10.8,1.6-20.7,4.6-29.2c3-8.5,7.3-16,13.1-22c5.8-5.8,12.9-10.4,21-13.7c8.1-3.3,17.5-4.6,27.9-4.6
			c10.2,0,19.3,1.6,27.3,4.6c8,3,14.7,7.5,20,13.1c5.6,5.8,9.6,12.9,12.1,21s4.3,17.5,4.3,27.3v13.1h-81.4
			c0.3,8.1,1.9,13.7,5.3,16.7c3,3,7.3,4.6,12.5,4.6c8.1,0,13.5-3.6,15.4-10.4h47.6v0.2H267.1z M204.8,76.8c-5.3,0-9.6,1.3-12.9,4.3
			c-3.3,3.1-4.9,7.5-5.3,13.7h33.8c-0.3-6.9-1.9-11.4-4.6-14.2C213.4,78.2,209.8,76.8,204.8,76.8z"/>
		<path fill="#FFFFFF" d="M350.9,173.6v-12.1c-5.3,5.3-10.8,9.2-16.7,11.9c-5.8,2.7-12.9,4-20.7,4c-5.3,0-10.4-0.7-15.8-2.3
			c-5.3-1.3-9.8-3.6-13.7-6.9s-7.3-7.3-9.8-12.1c-2.5-4.8-3.6-10.8-3.6-17.7c0-8.6,1.9-15.4,5.6-21.4c3.6-5.6,8.6-10.2,14.7-13.5
			c6.3-3.3,12.9-5.6,19.7-6.9s14.7-1.9,23.6-2.3l14.7-0.7v-4c0-4.9-1-8.1-3-10.4c-1.9-2.3-4.9-3.3-8.9-3.3c-3.6,0-6.6,1-8.9,2.6
			c-1.9,1.6-3.6,4.6-4.3,7.9l-46.6-3.3c1.9-13.7,8.1-24.3,18.4-31.2c10.2-6.9,24.3-10.4,42.4-10.4c11.2,0,20.7,1.3,28.2,4
			c7.5,2.6,13.5,6.3,18.4,10.8c4.6,4.6,7.9,10.4,9.8,17c1.9,6.6,3,14.2,3,22V174h-46.7L350.9,173.6L350.9,173.6z M348.9,121.9
			l-13.5,0.7c-5.8,0.3-10.4,1.6-13.1,3.6c-3,1.9-4.3,4.9-4.3,8.6c0,3,1,5.3,3,6.9c1.9,1.6,4.9,2.3,8.6,2.3c5.6,0,10.2-1.6,14.2-5.3
			c3.6-3.6,5.6-8.1,5.6-13.7v-3L348.9,121.9L348.9,121.9z"/>
		<path fill="#FFFFFF" d="M470.1,119.8l-11.9,11.4v42.4h-49.6V0h49.6v79.7l32.9-34.5h57.8l-44,42.6l47.6,85.7h-54.5L470.1,119.8z"/>
	</g>
</g>
</svg>
