<?xml version="1.0" encoding="utf-8"?>
<!-- Generator: Adobe Illustrator 18.1.0, SVG Export Plug-In . SVG Version: 6.00 Build 0)  -->
<svg version="1.1" id="Layer_1" xmlns="http://www.w3.org/2000/svg" xmlns:xlink="http://www.w3.org/1999/xlink" x="0px" y="0px"
	 viewBox="0 185.3 777.7 224.3" enable-background="new 0 185.3 777.7 224.3" xml:space="preserve">
<g>
	<g>
		<path fill="#FFFFFF" d="M175.5,216.4h73.3c15,0,27.6,1.8,37.6,5c10,3.6,18.2,8.2,24,14c6.1,6.1,10,12.9,12.5,21.1
			c2.5,7.9,3.6,16.8,3.6,25.8c0,9.3-1.4,18.2-3.9,26.1c-2.5,8.2-6.8,15-12.5,21.1c-5.7,6.1-14,10.7-24,14c-10,3.6-22.5,5-37.2,5
			h-15.7v56.9h-57.6V216.4z M233.5,302.6h16.1c8.9,0,15-1.8,18.2-5s5-8.2,5-15c0-6.8-1.8-11.4-5-15s-9.3-5-18.2-5h-16.1V302.6z"/>
		<path fill="#FFFFFF" d="M466.7,359.5c-2.9,17.2-10.4,29.7-21.8,37.9c-11.4,8.2-26.8,12.2-46.2,12.2c-24.7,0-42.9-6.4-55.1-19.3
			c-12.2-12.9-18.2-30.4-18.2-53.3c0-11.8,1.8-22.5,5-31.8c3.2-9.3,7.9-17.5,14.3-24c6.4-6.4,14-11.4,22.9-15s19-5,30.4-5
			c11.1,0,21.1,1.8,29.7,5c8.6,3.2,16.1,8.2,21.8,14.3c6.1,6.4,10.4,14,13.2,22.9s4.7,19,4.7,29.7v14.3h-88.7
			c0.4,8.9,2.1,15,5.7,18.2c3.2,3.2,7.9,5,13.6,5c8.9,0,14.7-3.9,16.8-11.4h51.9V359.5z M398.8,300.1c-5.7,0-10.4,1.4-14,4.7
			s-5.4,8.2-5.7,15h36.9c-0.4-7.5-2.1-12.5-5-15.4C408.1,301.6,404.1,300.1,398.8,300.1z"/>
		<path fill="#FFFFFF" d="M558,405.7v-13.2c-5.7,5.7-11.8,10-18.2,12.9c-6.4,2.9-14,4.3-22.5,4.3c-5.7,0-11.4-0.7-17.2-2.5
			c-5.7-1.4-10.7-3.9-15-7.5c-4.3-3.6-7.9-7.9-10.7-13.2s-3.9-11.8-3.9-19.3c0-9.3,2.1-16.8,6.1-23.3c3.9-6.1,9.3-11.1,16.1-14.7
			s14-6.1,21.5-7.5c7.5-1.4,16.1-2.1,25.8-2.5l16.1-0.7v-4.3c0-5.4-1.1-8.9-3.2-11.4c-2.1-2.5-5.4-3.6-9.7-3.6
			c-3.9,0-7.2,1.1-9.7,2.9c-2.1,1.8-3.9,5-4.7,8.6l-50.8-3.6c2.1-15,8.9-26.5,20-34c11.1-7.5,26.5-11.4,46.2-11.4
			c12.2,0,22.5,1.4,30.8,4.3c8.2,2.9,14.7,6.8,20,11.8c5,5,8.6,11.4,10.7,18.6s3.2,15.4,3.2,24v85.5H558z M555.8,349.2l-14.7,0.7
			c-6.4,0.4-11.4,1.8-14.3,3.9c-3.2,2.1-4.7,5.4-4.7,9.3c0,3.2,1.1,5.7,3.2,7.5c2.1,1.8,5.4,2.5,9.3,2.5c6.1,0,11.1-1.8,15.4-5.7
			c3.9-3.9,6.1-8.9,6.1-15v-3.2H555.8z"/>
		<path fill="#FFFFFF" d="M687.9,347L675,359.5v46.2h-54V216.4h54v86.9l35.8-37.6h63l-47.9,46.5l51.9,93.4h-59.4L687.9,347z"/>
	</g>
	<g>
		<g>
			<path opacity="0.369" fill="#FFFFFF" enable-background="new    " d="M92.3,235.4c1.8-1.8,3.6-3.2,5.7-5
				c-2.9-1.1-4.7-2.5-4.7-4.7c0-2.5,2.5-3.9,5.7-3.9c2.5,0,5,1.1,5,2.9v1.1c2.1-1.4,3.9-3.2,6.1-4.7c-1.1-3.2-5-5-8.6-5.4
				c-3.6,3.2-7.5,6.4-11.1,9.7c-1.4,1.4-2.5,2.5-3.9,3.9C87.7,231.8,89.8,234,92.3,235.4z"/>
			<path opacity="0.369" fill="#FFFFFF" enable-background="new    " d="M92.3,235.4c1.8-1.8,3.6-3.2,5.7-5
				c-2.9-1.1-4.7-2.5-4.7-4.7c0-2.5,2.5-3.9,5.7-3.9c2.5,0,5,1.1,5,2.9v1.1c2.1-1.4,3.9-3.2,6.1-4.7c-1.1-3.2-5-5-8.6-5.4
				c-3.6,3.2-7.5,6.4-11.1,9.7c-1.4,1.4-2.5,2.5-3.9,3.9C87.7,231.8,89.8,234,92.3,235.4z"/>
			<path opacity="0.369" fill="#FFFFFF" enable-background="new    " d="M104.1,243.6c0,1.1-0.4,2.1-1.1,2.5c2.5-2.1,5-3.9,7.5-6.1
				c-1.4-6.1-8.2-7.9-12.9-10c-1.8,1.8-3.9,3.2-5.7,5C97.7,238.2,104.1,239.7,104.1,243.6z"/>
			<path opacity="0.369" fill="#FFFFFF" enable-background="new    " d="M104.1,243.6c0,1.1-0.4,2.1-1.1,2.5c2.5-2.1,5-3.9,7.5-6.1
				c-1.4-6.1-8.2-7.9-12.9-10c-1.8,1.8-3.9,3.2-5.7,5C97.7,238.2,104.1,239.7,104.1,243.6z"/>
			<path opacity="0.369" fill="#FFFFFF" enable-background="new    " d="M104.1,243.6c0,1.1-0.4,2.1-1.1,2.5c2.5-2.1,5-3.9,7.5-6.1
				c-1.4-6.1-8.2-7.9-12.9-10c-1.8,1.8-3.9,3.2-5.7,5C97.7,238.2,104.1,239.7,104.1,243.6z"/>
			<path opacity="0.369" fill="#FFFFFF" enable-background="new    " d="M104.1,243.6c0,1.1-0.4,2.1-1.1,2.5c2.5-2.1,5-3.9,7.5-6.1
				c-1.4-6.1-8.2-7.9-12.9-10c-1.8,1.8-3.9,3.2-5.7,5C97.7,238.2,104.1,239.7,104.1,243.6z"/>
			<path opacity="0.369" fill="#FFFFFF" enable-background="new    " d="M104.1,226.1h6.4v-3.6c0-0.7,0-1.4-0.4-1.8
				c-2.1,1.4-3.9,3.2-6.1,4.7C104.1,225.4,104.1,226.1,104.1,226.1z"/>
			<path opacity="0.369" fill="#FFFFFF" enable-background="new    " d="M104.1,226.1h6.4v-3.6c0-0.7,0-1.4-0.4-1.8
				c-2.1,1.4-3.9,3.2-6.1,4.7C104.1,225.4,104.1,226.1,104.1,226.1z"/>
			<path opacity="0.369" fill="#FFFFFF" enable-background="new    " d="M104.1,226.1h6.4v-3.6c0-0.7,0-1.4-0.4-1.8
				c-2.1,1.4-3.9,3.2-6.1,4.7C104.1,225.4,104.1,226.1,104.1,226.1z"/>
			<path opacity="0.369" fill="#FFFFFF" enable-background="new    " d="M104.1,226.1h6.4v-3.6c0-0.7,0-1.4-0.4-1.8
				c-2.1,1.4-3.9,3.2-6.1,4.7C104.1,225.4,104.1,226.1,104.1,226.1z"/>
			<path opacity="0.369" fill="#FFFFFF" enable-background="new    " d="M98.8,248.3c-5.4,0-9.3-4.7-9.3-4.7l-3.9,5
				c0,0,2.9,3.6,8.2,5.4c2.5-2.1,5.4-4.3,7.9-6.4C100.9,247.9,99.8,248.3,98.8,248.3z"/>
			<path opacity="0.369" fill="#FFFFFF" enable-background="new    " d="M98.8,248.3c-5.4,0-9.3-4.7-9.3-4.7l-3.9,5
				c0,0,2.9,3.6,8.2,5.4c2.5-2.1,5.4-4.3,7.9-6.4C100.9,247.9,99.8,248.3,98.8,248.3z"/>
			<path opacity="0.369" fill="#FFFFFF" enable-background="new    " d="M98.8,248.3c-5.4,0-9.3-4.7-9.3-4.7l-3.9,5
				c0,0,2.9,3.6,8.2,5.4c2.5-2.1,5.4-4.3,7.9-6.4C100.9,247.9,99.8,248.3,98.8,248.3z"/>
			<path opacity="0.369" fill="#FFFFFF" enable-background="new    " d="M98.8,248.3c-5.4,0-9.3-4.7-9.3-4.7l-3.9,5
				c0,0,2.9,3.6,8.2,5.4c2.5-2.1,5.4-4.3,7.9-6.4C100.9,247.9,99.8,248.3,98.8,248.3z"/>
			<path opacity="0.369" fill="#FFFFFF" enable-background="new    " d="M101.6,215.3c-0.7,0-1.8-0.4-2.5-0.4
				c-7.5,0-12.9,4.7-12.9,10.7c0,1.1,0,2.1,0.4,3.2c1.4-1.4,2.5-2.5,3.9-3.9C94.1,221.8,97.7,218.6,101.6,215.3z"/>
			<path opacity="0.369" fill="#FFFFFF" enable-background="new    " d="M101.6,215.3c-0.7,0-1.8-0.4-2.5-0.4
				c-7.5,0-12.9,4.7-12.9,10.7c0,1.1,0,2.1,0.4,3.2c1.4-1.4,2.5-2.5,3.9-3.9C94.1,221.8,97.7,218.6,101.6,215.3z"/>
			<path opacity="0.369" fill="#FFFFFF" enable-background="new    " d="M101.6,215.3c-0.7,0-1.8-0.4-2.5-0.4
				c-7.5,0-12.9,4.7-12.9,10.7c0,1.1,0,2.1,0.4,3.2c1.4-1.4,2.5-2.5,3.9-3.9C94.1,221.8,97.7,218.6,101.6,215.3z"/>
			<path opacity="0.369" fill="#FFFFFF" enable-background="new    " d="M101.6,215.3c-0.7,0-1.8-0.4-2.5-0.4
				c-7.5,0-12.9,4.7-12.9,10.7c0,1.1,0,2.1,0.4,3.2c1.4-1.4,2.5-2.5,3.9-3.9C94.1,221.8,97.7,218.6,101.6,215.3z"/>
			<path opacity="0.369" fill="#FFFFFF" enable-background="new    " d="M102,247.5c-2.5,2.1-5.4,4.3-7.9,6.4
				c1.4,0.4,2.9,0.7,4.7,0.7c7.9,0,12.5-5,12.5-11.1c0-1.1,0-2.1-0.4-2.9c-2.5,1.8-5,3.9-7.5,6.1C103,246.8,102.3,247.2,102,247.5z"
				/>
			<path opacity="0.369" fill="#FFFFFF" enable-background="new    " d="M102,247.5c-2.5,2.1-5.4,4.3-7.9,6.4
				c1.4,0.4,2.9,0.7,4.7,0.7c7.9,0,12.5-5,12.5-11.1c0-1.1,0-2.1-0.4-2.9c-2.5,1.8-5,3.9-7.5,6.1C103,246.8,102.3,247.2,102,247.5z"
				/>
			<path opacity="0.369" fill="#FFFFFF" enable-background="new    " d="M102,247.5c-2.5,2.1-5.4,4.3-7.9,6.4
				c1.4,0.4,2.9,0.7,4.7,0.7c7.9,0,12.5-5,12.5-11.1c0-1.1,0-2.1-0.4-2.9c-2.5,1.8-5,3.9-7.5,6.1C103,246.8,102.3,247.2,102,247.5z"
				/>
			<path opacity="0.369" fill="#FFFFFF" enable-background="new    " d="M102,247.5c-2.5,2.1-5.4,4.3-7.9,6.4
				c1.4,0.4,2.9,0.7,4.7,0.7c7.9,0,12.5-5,12.5-11.1c0-1.1,0-2.1-0.4-2.9c-2.5,1.8-5,3.9-7.5,6.1C103,246.8,102.3,247.2,102,247.5z"
				/>
			<path opacity="0.369" fill="#FFFFFF" enable-background="new    " d="M102,247.5c-2.5,2.1-5.4,4.3-7.9,6.4
				c1.4,0.4,2.9,0.7,4.7,0.7c7.9,0,12.5-5,12.5-11.1c0-1.1,0-2.1-0.4-2.9c-2.5,1.8-5,3.9-7.5,6.1C103,246.8,102.3,247.2,102,247.5z"
				/>
			<path opacity="0.369" fill="#FFFFFF" enable-background="new    " d="M102,247.5c-2.5,2.1-5.4,4.3-7.9,6.4
				c1.4,0.4,2.9,0.7,4.7,0.7c7.9,0,12.5-5,12.5-11.1c0-1.1,0-2.1-0.4-2.9c-2.5,1.8-5,3.9-7.5,6.1C103,246.8,102.3,247.2,102,247.5z"
				/>
		</g>
		<g>
			<path opacity="0.369" fill="#FFFFFF" enable-background="new    " d="M20.4,221.1l32.2-32.2l-3.6-3.6L1.1,232.9l0,0L0,234.3
				l2.9,2.9C8.6,231.4,14.3,226.1,20.4,221.1z"/>
			<path opacity="0.369" fill="#FFFFFF" enable-background="new    " d="M20.4,221.1l32.2-32.2l-3.6-3.6L1.1,232.9l0,0L0,234.3
				l2.9,2.9C8.6,231.4,14.3,226.1,20.4,221.1z"/>
			<path opacity="0.369" fill="#FFFFFF" enable-background="new    " d="M20.4,221.1l32.2-32.2l-3.6-3.6L1.1,232.9l0,0L0,234.3
				l2.9,2.9C8.6,231.4,14.3,226.1,20.4,221.1z"/>
			<path opacity="0.369" fill="#FFFFFF" enable-background="new    " d="M20.4,221.1l32.2-32.2l-3.6-3.6L1.1,232.9l0,0L0,234.3
				l2.9,2.9C8.6,231.4,14.3,226.1,20.4,221.1z"/>
			<path opacity="0.369" fill="#FFFFFF" enable-background="new    " d="M36.9,271.2l10.7,10.7l3.6-3.6l-10.7-10.7
				c-0.4,0.4-0.7,0.7-1.1,1.1C38.6,269.7,37.6,270.4,36.9,271.2z"/>
			<path opacity="0.369" fill="#FFFFFF" enable-background="new    " d="M36.9,271.2l10.7,10.7l3.6-3.6l-10.7-10.7
				c-0.4,0.4-0.7,0.7-1.1,1.1C38.6,269.7,37.6,270.4,36.9,271.2z"/>
			<path opacity="0.369" fill="#FFFFFF" enable-background="new    " d="M20.8,252.9c0.7-1.1,1.4-1.8,2.1-2.9L7.2,234.3l13.2-13.2
				c-6.1,5.4-11.8,10.7-17.5,16.5l16.8,16.8C20,253.6,20.4,253.3,20.8,252.9z"/>
			<path opacity="0.369" fill="#FFFFFF" enable-background="new    " d="M20.8,252.9c0.7-1.1,1.4-1.8,2.1-2.9L7.2,234.3l13.2-13.2
				c-6.1,5.4-11.8,10.7-17.5,16.5l16.8,16.8C20,253.6,20.4,253.3,20.8,252.9z"/>
			<path opacity="0.369" fill="#FFFFFF" enable-background="new    " d="M20.8,252.9c0.7-1.1,1.4-1.8,2.1-2.9L7.2,234.3l13.2-13.2
				c-6.1,5.4-11.8,10.7-17.5,16.5l16.8,16.8C20,253.6,20.4,253.3,20.8,252.9z"/>
			<path opacity="0.369" fill="#FFFFFF" enable-background="new    " d="M20.8,252.9c0.7-1.1,1.4-1.8,2.1-2.9L7.2,234.3l13.2-13.2
				c-6.1,5.4-11.8,10.7-17.5,16.5l16.8,16.8C20,253.6,20.4,253.3,20.8,252.9z"/>
			<path opacity="0.369" fill="#FFFFFF" enable-background="new    " d="M20.8,252.9c0.7-1.1,1.4-1.8,2.1-2.9L7.2,234.3l13.2-13.2
				c-6.1,5.4-11.8,10.7-17.5,16.5l16.8,16.8C20,253.6,20.4,253.3,20.8,252.9z"/>
			<path opacity="0.369" fill="#FFFFFF" enable-background="new    " d="M20.8,252.9c0.7-1.1,1.4-1.8,2.1-2.9L7.2,234.3l13.2-13.2
				c-6.1,5.4-11.8,10.7-17.5,16.5l16.8,16.8C20,253.6,20.4,253.3,20.8,252.9z"/>
			<path opacity="0.369" fill="#FFFFFF" enable-background="new    " d="M25,257.6c0,0.7,0,1.4,0,2.1l11.4,11.4
				c0.7-0.7,1.4-1.4,2.5-2.1c0.4-0.4,0.7-0.7,1.1-1.1l-14-14c-0.4,0.7-0.7,1.1-1.1,1.8C25.4,256.1,25.4,256.9,25,257.6z"/>
			<path opacity="0.369" fill="#FFFFFF" enable-background="new    " d="M25,257.6c0,0.7,0,1.4,0,2.1l11.4,11.4
				c0.7-0.7,1.4-1.4,2.5-2.1c0.4-0.4,0.7-0.7,1.1-1.1l-14-14c-0.4,0.7-0.7,1.1-1.1,1.8C25.4,256.1,25.4,256.9,25,257.6z"/>
			<path opacity="0.369" fill="#FFFFFF" enable-background="new    " d="M25,257.6c0,0.7,0,1.4,0,2.1l11.4,11.4
				c0.7-0.7,1.4-1.4,2.5-2.1c0.4-0.4,0.7-0.7,1.1-1.1l-14-14c-0.4,0.7-0.7,1.1-1.1,1.8C25.4,256.1,25.4,256.9,25,257.6z"/>
			<path opacity="0.369" fill="#FFFFFF" enable-background="new    " d="M25,257.6c0,0.7,0,1.4,0,2.1l11.4,11.4
				c0.7-0.7,1.4-1.4,2.5-2.1c0.4-0.4,0.7-0.7,1.1-1.1l-14-14c-0.4,0.7-0.7,1.1-1.1,1.8C25.4,256.1,25.4,256.9,25,257.6z"/>
			<path opacity="0.369" fill="#FFFFFF" enable-background="new    " d="M25.4,255.8c0.4-0.7,0.7-1.1,1.1-1.8l-0.7-0.7
				C25.8,254,25.8,254.7,25.4,255.8z"/>
			<path opacity="0.369" fill="#FFFFFF" enable-background="new    " d="M25.4,255.8c0.4-0.7,0.7-1.1,1.1-1.8l-0.7-0.7
				C25.8,254,25.8,254.7,25.4,255.8z"/>
			<path opacity="0.369" fill="#FFFFFF" enable-background="new    " d="M25.4,255.8c0.4-0.7,0.7-1.1,1.1-1.8l-0.7-0.7
				C25.8,254,25.8,254.7,25.4,255.8z"/>
			<path opacity="0.369" fill="#FFFFFF" enable-background="new    " d="M25.4,255.8c0.4-0.7,0.7-1.1,1.1-1.8l-0.7-0.7
				C25.8,254,25.8,254.7,25.4,255.8z"/>
			<path opacity="0.369" fill="#FFFFFF" enable-background="new    " d="M25.4,255.8c0.4-0.7,0.7-1.1,1.1-1.8l-0.7-0.7
				C25.8,254,25.8,254.7,25.4,255.8z"/>
			<path opacity="0.369" fill="#FFFFFF" enable-background="new    " d="M25.4,255.8c0.4-0.7,0.7-1.1,1.1-1.8l-0.7-0.7
				C25.8,254,25.8,254.7,25.4,255.8z"/>
			<path opacity="0.369" fill="#FFFFFF" enable-background="new    " d="M25.4,255.8c-0.7,0.7-1.1,1.8-1.8,2.5l1.4,1.4
				c0-0.7,0-1.4,0-2.1C25.4,256.9,25.4,256.1,25.4,255.8z"/>
			<path opacity="0.369" fill="#FFFFFF" enable-background="new    " d="M25.4,255.8c-0.7,0.7-1.1,1.8-1.8,2.5l1.4,1.4
				c0-0.7,0-1.4,0-2.1C25.4,256.9,25.4,256.1,25.4,255.8z"/>
			<path opacity="0.369" fill="#FFFFFF" enable-background="new    " d="M25.4,255.8c-0.7,0.7-1.1,1.8-1.8,2.5l1.4,1.4
				c0-0.7,0-1.4,0-2.1C25.4,256.9,25.4,256.1,25.4,255.8z"/>
			<path opacity="0.369" fill="#FFFFFF" enable-background="new    " d="M25.4,255.8c-0.7,0.7-1.1,1.8-1.8,2.5l1.4,1.4
				c0-0.7,0-1.4,0-2.1C25.4,256.9,25.4,256.1,25.4,255.8z"/>
			<path opacity="0.369" fill="#FFFFFF" enable-background="new    " d="M25.4,255.8c-0.7,0.7-1.1,1.8-1.8,2.5l1.4,1.4
				c0-0.7,0-1.4,0-2.1C25.4,256.9,25.4,256.1,25.4,255.8z"/>
			<path opacity="0.369" fill="#FFFFFF" enable-background="new    " d="M25.4,255.8c-0.7,0.7-1.1,1.8-1.8,2.5l1.4,1.4
				c0-0.7,0-1.4,0-2.1C25.4,256.9,25.4,256.1,25.4,255.8z"/>
			<path opacity="0.369" fill="#FFFFFF" enable-background="new    " d="M19.7,254l3.9,3.9c0.4-0.7,1.1-1.8,1.8-2.5
				c0-0.7,0.4-1.8,0.4-2.5l-3.2-3.2c-0.7,1.1-1.4,1.8-2.1,2.9C20.4,253.3,20,253.6,19.7,254z"/>
			<path opacity="0.369" fill="#FFFFFF" enable-background="new    " d="M19.7,254l3.9,3.9c0.4-0.7,1.1-1.8,1.8-2.5
				c0-0.7,0.4-1.8,0.4-2.5l-3.2-3.2c-0.7,1.1-1.4,1.8-2.1,2.9C20.4,253.3,20,253.6,19.7,254z"/>
			<path opacity="0.369" fill="#FFFFFF" enable-background="new    " d="M19.7,254l3.9,3.9c0.4-0.7,1.1-1.8,1.8-2.5
				c0-0.7,0.4-1.8,0.4-2.5l-3.2-3.2c-0.7,1.1-1.4,1.8-2.1,2.9C20.4,253.3,20,253.6,19.7,254z"/>
			<path opacity="0.369" fill="#FFFFFF" enable-background="new    " d="M19.7,254l3.9,3.9c0.4-0.7,1.1-1.8,1.8-2.5
				c0-0.7,0.4-1.8,0.4-2.5l-3.2-3.2c-0.7,1.1-1.4,1.8-2.1,2.9C20.4,253.3,20,253.6,19.7,254z"/>
			<path opacity="0.369" fill="#FFFFFF" enable-background="new    " d="M19.7,254l3.9,3.9c0.4-0.7,1.1-1.8,1.8-2.5
				c0-0.7,0.4-1.8,0.4-2.5l-3.2-3.2c-0.7,1.1-1.4,1.8-2.1,2.9C20.4,253.3,20,253.6,19.7,254z"/>
			<path opacity="0.369" fill="#FFFFFF" enable-background="new    " d="M19.7,254l3.9,3.9c0.4-0.7,1.1-1.8,1.8-2.5
				c0-0.7,0.4-1.8,0.4-2.5l-3.2-3.2c-0.7,1.1-1.4,1.8-2.1,2.9C20.4,253.3,20,253.6,19.7,254z"/>
			<path opacity="0.369" fill="#FFFFFF" enable-background="new    " d="M19.7,254l3.9,3.9c0.4-0.7,1.1-1.8,1.8-2.5
				c0-0.7,0.4-1.8,0.4-2.5l-3.2-3.2c-0.7,1.1-1.4,1.8-2.1,2.9C20.4,253.3,20,253.6,19.7,254z"/>
			<path opacity="0.369" fill="#FFFFFF" enable-background="new    " d="M19.7,254l3.9,3.9c0.4-0.7,1.1-1.8,1.8-2.5
				c0-0.7,0.4-1.8,0.4-2.5l-3.2-3.2c-0.7,1.1-1.4,1.8-2.1,2.9C20.4,253.3,20,253.6,19.7,254z"/>
		</g>
		<g>
			<path opacity="0.369" fill="#FFFFFF" enable-background="new    " d="M93,278.3l3.6,3.6l3.6-3.6c-1.4-1.1-2.9-2.1-4.3-2.9
				L93,278.3z"/>
			<path opacity="0.369" fill="#FFFFFF" enable-background="new    " d="M93,278.3l3.6,3.6l3.6-3.6c-1.4-1.1-2.9-2.1-4.3-2.9
				L93,278.3z"/>
			<path opacity="0.369" fill="#FFFFFF" enable-background="new    " d="M103.8,202.1c-0.4,0-0.7-0.4-1.1-0.4l33.6,33.6l-40.1,39.7
				c1.4,1.1,2.9,2.1,4.3,2.9l42.9-42.9l-3.6-3.6l0,0l-21.1-21.1c-2.1-1.4-3.9-2.5-6.1-3.9C109.8,205.3,106.6,203.9,103.8,202.1z"/>
			<path opacity="0.369" fill="#FFFFFF" enable-background="new    " d="M103.8,202.1c-0.4,0-0.7-0.4-1.1-0.4l33.6,33.6l-40.1,39.7
				c1.4,1.1,2.9,2.1,4.3,2.9l42.9-42.9l-3.6-3.6l0,0l-21.1-21.1c-2.1-1.4-3.9-2.5-6.1-3.9C109.8,205.3,106.6,203.9,103.8,202.1z"/>
			<path opacity="0.369" fill="#FFFFFF" enable-background="new    " d="M103.8,202.1c-0.4,0-0.7-0.4-1.1-0.4l33.6,33.6l-40.1,39.7
				c1.4,1.1,2.9,2.1,4.3,2.9l42.9-42.9l-3.6-3.6l0,0l-21.1-21.1c-2.1-1.4-3.9-2.5-6.1-3.9C109.8,205.3,106.6,203.9,103.8,202.1z"/>
			<path opacity="0.369" fill="#FFFFFF" enable-background="new    " d="M103.8,202.1c-0.4,0-0.7-0.4-1.1-0.4l33.6,33.6l-40.1,39.7
				c1.4,1.1,2.9,2.1,4.3,2.9l42.9-42.9l-3.6-3.6l0,0l-21.1-21.1c-2.1-1.4-3.9-2.5-6.1-3.9C109.8,205.3,106.6,203.9,103.8,202.1z"/>
			<path opacity="0.369" fill="#FFFFFF" enable-background="new    " d="M89.8,188.9l12.5,12.5c0.4,0,0.7,0.4,1.1,0.4
				c3.2,1.8,6.1,3.2,9.3,5c2.1,1.4,3.9,2.5,6.1,3.9l-25.4-25.4L89.8,188.9z"/>
			<path opacity="0.369" fill="#FFFFFF" enable-background="new    " d="M89.8,188.9l12.5,12.5c0.4,0,0.7,0.4,1.1,0.4
				c3.2,1.8,6.1,3.2,9.3,5c2.1,1.4,3.9,2.5,6.1,3.9l-25.4-25.4L89.8,188.9z"/>
			<path opacity="0.369" fill="#FFFFFF" enable-background="new    " d="M89.8,188.9l12.5,12.5c0.4,0,0.7,0.4,1.1,0.4
				c3.2,1.8,6.1,3.2,9.3,5c2.1,1.4,3.9,2.5,6.1,3.9l-25.4-25.4L89.8,188.9z"/>
			<path opacity="0.369" fill="#FFFFFF" enable-background="new    " d="M89.8,188.9l12.5,12.5c0.4,0,0.7,0.4,1.1,0.4
				c3.2,1.8,6.1,3.2,9.3,5c2.1,1.4,3.9,2.5,6.1,3.9l-25.4-25.4L89.8,188.9z"/>
			<path opacity="0.369" fill="#FFFFFF" enable-background="new    " d="M89.8,188.9l12.5,12.5c0.4,0,0.7,0.4,1.1,0.4
				c3.2,1.8,6.1,3.2,9.3,5c2.1,1.4,3.9,2.5,6.1,3.9l-25.4-25.4L89.8,188.9z"/>
			<path opacity="0.369" fill="#FFFFFF" enable-background="new    " d="M89.8,188.9l12.5,12.5c0.4,0,0.7,0.4,1.1,0.4
				c3.2,1.8,6.1,3.2,9.3,5c2.1,1.4,3.9,2.5,6.1,3.9l-25.4-25.4L89.8,188.9z"/>
		</g>
		<g>
			<path opacity="0.369" fill="#FFFFFF" enable-background="new    " d="M54.7,216.1v0.7c0.4-0.4,0.7-0.4,1.1-0.7H54.7z"/>
			<path opacity="0.369" fill="#FFFFFF" enable-background="new    " d="M54.7,216.1v0.7c0.4-0.4,0.7-0.4,1.1-0.7H54.7z"/>
			<path opacity="0.369" fill="#FFFFFF" enable-background="new    " d="M31.8,217.5c0.7-0.7,1.4-1.1,2.1-1.8h-2.1V217.5z"/>
			<path opacity="0.369" fill="#FFFFFF" enable-background="new    " d="M31.8,217.5c0.7-0.7,1.4-1.1,2.1-1.8h-2.1V217.5z"/>
			<path opacity="0.369" fill="#FFFFFF" enable-background="new    " d="M31.8,221.8h1.1c1.1,0,1.4,0.4,1.8,1.1l1.4,5.4
				c2.1-1.4,4.3-2.9,6.4-4.3l-1.1-5c-0.7-2.5-2.1-3.2-4.7-3.2H34c-0.7,0.7-1.4,1.1-2.1,1.8V221.8z"/>
			<path opacity="0.369" fill="#FFFFFF" enable-background="new    " d="M31.8,221.8h1.1c1.1,0,1.4,0.4,1.8,1.1l1.4,5.4
				c2.1-1.4,4.3-2.9,6.4-4.3l-1.1-5c-0.7-2.5-2.1-3.2-4.7-3.2H34c-0.7,0.7-1.4,1.1-2.1,1.8V221.8z"/>
			<path opacity="0.369" fill="#FFFFFF" enable-background="new    " d="M31.8,221.8h1.1c1.1,0,1.4,0.4,1.8,1.1l1.4,5.4
				c2.1-1.4,4.3-2.9,6.4-4.3l-1.1-5c-0.7-2.5-2.1-3.2-4.7-3.2H34c-0.7,0.7-1.4,1.1-2.1,1.8V221.8z"/>
			<path opacity="0.369" fill="#FFFFFF" enable-background="new    " d="M31.8,221.8h1.1c1.1,0,1.4,0.4,1.8,1.1l1.4,5.4
				c2.1-1.4,4.3-2.9,6.4-4.3l-1.1-5c-0.7-2.5-2.1-3.2-4.7-3.2H34c-0.7,0.7-1.4,1.1-2.1,1.8V221.8z"/>
			<path opacity="0.369" fill="#FFFFFF" enable-background="new    " d="M64.4,253.3v0.4h8.2l1.4-5.4c-2.1,1.1-4.3,2.1-6.8,3.2
				C66.2,252.2,65.5,252.9,64.4,253.3z"/>
			<path opacity="0.369" fill="#FFFFFF" enable-background="new    " d="M64.4,253.3v0.4h8.2l1.4-5.4c-2.1,1.1-4.3,2.1-6.8,3.2
				C66.2,252.2,65.5,252.9,64.4,253.3z"/>
			<path opacity="0.369" fill="#FFFFFF" enable-background="new    " d="M36.9,232.5l2.1,8.2c1.8-2.1,3.6-4.3,5.7-6.1l-2.5-10
				c-1.4,1.8-2.9,3.6-3.9,5.7C37.9,231.1,37.2,231.8,36.9,232.5z"/>
			<path opacity="0.369" fill="#FFFFFF" enable-background="new    " d="M36.9,232.5l2.1,8.2c1.8-2.1,3.6-4.3,5.7-6.1l-2.5-10
				c-1.4,1.8-2.9,3.6-3.9,5.7C37.9,231.1,37.2,231.8,36.9,232.5z"/>
			<path opacity="0.369" fill="#FFFFFF" enable-background="new    " d="M36.9,232.5l2.1,8.2c1.8-2.1,3.6-4.3,5.7-6.1l-2.5-10
				c-1.4,1.8-2.9,3.6-3.9,5.7C37.9,231.1,37.2,231.8,36.9,232.5z"/>
			<path opacity="0.369" fill="#FFFFFF" enable-background="new    " d="M36.9,232.5l2.1,8.2c1.8-2.1,3.6-4.3,5.7-6.1l-2.5-10
				c-1.4,1.8-2.9,3.6-3.9,5.7C37.9,231.1,37.2,231.8,36.9,232.5z"/>
			<path opacity="0.369" fill="#FFFFFF" enable-background="new    " d="M61.5,218.9l-0.7-2.9h-5c-0.4,0.4-0.7,0.4-1.1,0.7
				l-2.9,11.1c0.4-0.4,0.4-0.4,0.7-0.7C55.1,224.3,58.3,221.4,61.5,218.9z"/>
			<path opacity="0.369" fill="#FFFFFF" enable-background="new    " d="M61.5,218.9l-0.7-2.9h-5c-0.4,0.4-0.7,0.4-1.1,0.7
				l-2.9,11.1c0.4-0.4,0.4-0.4,0.7-0.7C55.1,224.3,58.3,221.4,61.5,218.9z"/>
			<path opacity="0.369" fill="#FFFFFF" enable-background="new    " d="M61.5,218.9l-0.7-2.9h-5c-0.4,0.4-0.7,0.4-1.1,0.7
				l-2.9,11.1c0.4-0.4,0.4-0.4,0.7-0.7C55.1,224.3,58.3,221.4,61.5,218.9z"/>
			<path opacity="0.369" fill="#FFFFFF" enable-background="new    " d="M61.5,218.9l-0.7-2.9h-5c-0.4,0.4-0.7,0.4-1.1,0.7
				l-2.9,11.1c0.4-0.4,0.4-0.4,0.7-0.7C55.1,224.3,58.3,221.4,61.5,218.9z"/>
			<path opacity="0.369" fill="#FFFFFF" enable-background="new    " d="M36.9,232.5c0.4-0.7,1.1-1.4,1.4-2.1
				c1.4-1.8,2.9-3.6,3.9-5.7v-0.7c-2.1,1.4-4.3,2.9-6.4,4.3L36.9,232.5z"/>
			<path opacity="0.369" fill="#FFFFFF" enable-background="new    " d="M36.9,232.5c0.4-0.7,1.1-1.4,1.4-2.1
				c1.4-1.8,2.9-3.6,3.9-5.7v-0.7c-2.1,1.4-4.3,2.9-6.4,4.3L36.9,232.5z"/>
			<path opacity="0.369" fill="#FFFFFF" enable-background="new    " d="M36.9,232.5c0.4-0.7,1.1-1.4,1.4-2.1
				c1.4-1.8,2.9-3.6,3.9-5.7v-0.7c-2.1,1.4-4.3,2.9-6.4,4.3L36.9,232.5z"/>
			<path opacity="0.369" fill="#FFFFFF" enable-background="new    " d="M36.9,232.5c0.4-0.7,1.1-1.4,1.4-2.1
				c1.4-1.8,2.9-3.6,3.9-5.7v-0.7c-2.1,1.4-4.3,2.9-6.4,4.3L36.9,232.5z"/>
			<path opacity="0.369" fill="#FFFFFF" enable-background="new    " d="M36.9,232.5c0.4-0.7,1.1-1.4,1.4-2.1
				c1.4-1.8,2.9-3.6,3.9-5.7v-0.7c-2.1,1.4-4.3,2.9-6.4,4.3L36.9,232.5z"/>
			<path opacity="0.369" fill="#FFFFFF" enable-background="new    " d="M36.9,232.5c0.4-0.7,1.1-1.4,1.4-2.1
				c1.4-1.8,2.9-3.6,3.9-5.7v-0.7c-2.1,1.4-4.3,2.9-6.4,4.3L36.9,232.5z"/>
			<path opacity="0.369" fill="#FFFFFF" enable-background="new    " d="M58.3,231.1c0,0.4,0.4,0.7,0.4,1.1l5.7,21.1
				c1.1-0.7,1.8-1.1,2.9-1.8c2.1-1.1,4.3-2.1,6.8-3.2l6.4-25.4c0.4-1.1,0.7-1.1,1.8-1.1h1.1v-5c-3.2,1.4-6.8,3.2-10,5l-4.7,20
				c-0.4,2.1-0.7,3.9-0.7,3.9l0,0c0,0,0-1.8-0.7-3.9l-3.6-14c-0.7,0.4-1.4,0.7-2.1,1.4C60.5,229.7,59.4,230.4,58.3,231.1z"/>
			<path opacity="0.369" fill="#FFFFFF" enable-background="new    " d="M58.3,231.1c0,0.4,0.4,0.7,0.4,1.1l5.7,21.1
				c1.1-0.7,1.8-1.1,2.9-1.8c2.1-1.1,4.3-2.1,6.8-3.2l6.4-25.4c0.4-1.1,0.7-1.1,1.8-1.1h1.1v-5c-3.2,1.4-6.8,3.2-10,5l-4.7,20
				c-0.4,2.1-0.7,3.9-0.7,3.9l0,0c0,0,0-1.8-0.7-3.9l-3.6-14c-0.7,0.4-1.4,0.7-2.1,1.4C60.5,229.7,59.4,230.4,58.3,231.1z"/>
			<path opacity="0.369" fill="#FFFFFF" enable-background="new    " d="M58.3,231.1c0,0.4,0.4,0.7,0.4,1.1l5.7,21.1
				c1.1-0.7,1.8-1.1,2.9-1.8c2.1-1.1,4.3-2.1,6.8-3.2l6.4-25.4c0.4-1.1,0.7-1.1,1.8-1.1h1.1v-5c-3.2,1.4-6.8,3.2-10,5l-4.7,20
				c-0.4,2.1-0.7,3.9-0.7,3.9l0,0c0,0,0-1.8-0.7-3.9l-3.6-14c-0.7,0.4-1.4,0.7-2.1,1.4C60.5,229.7,59.4,230.4,58.3,231.1z"/>
			<path opacity="0.369" fill="#FFFFFF" enable-background="new    " d="M58.3,231.1c0,0.4,0.4,0.7,0.4,1.1l5.7,21.1
				c1.1-0.7,1.8-1.1,2.9-1.8c2.1-1.1,4.3-2.1,6.8-3.2l6.4-25.4c0.4-1.1,0.7-1.1,1.8-1.1h1.1v-5c-3.2,1.4-6.8,3.2-10,5l-4.7,20
				c-0.4,2.1-0.7,3.9-0.7,3.9l0,0c0,0,0-1.8-0.7-3.9l-3.6-14c-0.7,0.4-1.4,0.7-2.1,1.4C60.5,229.7,59.4,230.4,58.3,231.1z"/>
			<path opacity="0.369" fill="#FFFFFF" enable-background="new    " d="M40.4,246.1l2.1,7.9h8.2l6.1-21.5c-1.1,0.7-1.8,1.4-2.9,1.8
				c-1.8,1.4-3.6,2.9-5.4,4.3l-0.7,2.9c-0.7,2.1-0.7,3.9-0.7,3.9l0,0c0,0,0-1.8-0.7-3.9l-0.4-0.7C44.4,242.5,42.2,244.3,40.4,246.1
				L40.4,246.1z"/>
			<path opacity="0.369" fill="#FFFFFF" enable-background="new    " d="M40.4,246.1l2.1,7.9h8.2l6.1-21.5c-1.1,0.7-1.8,1.4-2.9,1.8
				c-1.8,1.4-3.6,2.9-5.4,4.3l-0.7,2.9c-0.7,2.1-0.7,3.9-0.7,3.9l0,0c0,0,0-1.8-0.7-3.9l-0.4-0.7C44.4,242.5,42.2,244.3,40.4,246.1
				L40.4,246.1z"/>
			<path opacity="0.369" fill="#FFFFFF" enable-background="new    " d="M40.4,246.1l2.1,7.9h8.2l6.1-21.5c-1.1,0.7-1.8,1.4-2.9,1.8
				c-1.8,1.4-3.6,2.9-5.4,4.3l-0.7,2.9c-0.7,2.1-0.7,3.9-0.7,3.9l0,0c0,0,0-1.8-0.7-3.9l-0.4-0.7C44.4,242.5,42.2,244.3,40.4,246.1
				L40.4,246.1z"/>
			<path opacity="0.369" fill="#FFFFFF" enable-background="new    " d="M40.4,246.1l2.1,7.9h8.2l6.1-21.5c-1.1,0.7-1.8,1.4-2.9,1.8
				c-1.8,1.4-3.6,2.9-5.4,4.3l-0.7,2.9c-0.7,2.1-0.7,3.9-0.7,3.9l0,0c0,0,0-1.8-0.7-3.9l-0.4-0.7C44.4,242.5,42.2,244.3,40.4,246.1
				L40.4,246.1z"/>
			<path opacity="0.369" fill="#FFFFFF" enable-background="new    " d="M83.4,215.7h-4.7c-2.5,0-4.3,0.7-4.7,3.2l-0.7,2.9
				c3.2-1.8,6.4-3.6,10-5V215.7L83.4,215.7z"/>
			<path opacity="0.369" fill="#FFFFFF" enable-background="new    " d="M83.4,215.7h-4.7c-2.5,0-4.3,0.7-4.7,3.2l-0.7,2.9
				c3.2-1.8,6.4-3.6,10-5V215.7L83.4,215.7z"/>
			<path opacity="0.369" fill="#FFFFFF" enable-background="new    " d="M83.4,215.7h-4.7c-2.5,0-4.3,0.7-4.7,3.2l-0.7,2.9
				c3.2-1.8,6.4-3.6,10-5V215.7L83.4,215.7z"/>
			<path opacity="0.369" fill="#FFFFFF" enable-background="new    " d="M83.4,215.7h-4.7c-2.5,0-4.3,0.7-4.7,3.2l-0.7,2.9
				c3.2-1.8,6.4-3.6,10-5V215.7L83.4,215.7z"/>
			<path opacity="0.369" fill="#FFFFFF" enable-background="new    " d="M83.4,215.7h-4.7c-2.5,0-4.3,0.7-4.7,3.2l-0.7,2.9
				c3.2-1.8,6.4-3.6,10-5V215.7L83.4,215.7z"/>
			<path opacity="0.369" fill="#FFFFFF" enable-background="new    " d="M83.4,215.7h-4.7c-2.5,0-4.3,0.7-4.7,3.2l-0.7,2.9
				c3.2-1.8,6.4-3.6,10-5V215.7L83.4,215.7z"/>
			<path opacity="0.369" fill="#FFFFFF" enable-background="new    " d="M40.4,246.1L40.4,246.1c2.1-1.8,3.9-3.6,5.7-5.4l-1.4-6.4
				c-1.8,2.1-3.9,3.9-5.7,6.1L40.4,246.1z"/>
			<path opacity="0.369" fill="#FFFFFF" enable-background="new    " d="M40.4,246.1L40.4,246.1c2.1-1.8,3.9-3.6,5.7-5.4l-1.4-6.4
				c-1.8,2.1-3.9,3.9-5.7,6.1L40.4,246.1z"/>
			<path opacity="0.369" fill="#FFFFFF" enable-background="new    " d="M40.4,246.1L40.4,246.1c2.1-1.8,3.9-3.6,5.7-5.4l-1.4-6.4
				c-1.8,2.1-3.9,3.9-5.7,6.1L40.4,246.1z"/>
			<path opacity="0.369" fill="#FFFFFF" enable-background="new    " d="M40.4,246.1L40.4,246.1c2.1-1.8,3.9-3.6,5.7-5.4l-1.4-6.4
				c-1.8,2.1-3.9,3.9-5.7,6.1L40.4,246.1z"/>
			<path opacity="0.369" fill="#FFFFFF" enable-background="new    " d="M40.4,246.1L40.4,246.1c2.1-1.8,3.9-3.6,5.7-5.4l-1.4-6.4
				c-1.8,2.1-3.9,3.9-5.7,6.1L40.4,246.1z"/>
			<path opacity="0.369" fill="#FFFFFF" enable-background="new    " d="M40.4,246.1L40.4,246.1c2.1-1.8,3.9-3.6,5.7-5.4l-1.4-6.4
				c-1.8,2.1-3.9,3.9-5.7,6.1L40.4,246.1z"/>
			<path opacity="0.369" fill="#FFFFFF" enable-background="new    " d="M56.5,232.5L56.5,232.5c0.7-2.5,1.1-4.7,1.1-4.7l0,0
				c0,0,0.4,1.4,0.7,3.6c1.1-0.7,2.1-1.4,3.2-2.1c0.7-0.4,1.4-0.7,2.1-1.4l-2.1-8.6c-3.2,2.9-6.1,5.4-9.3,8.2
				c-0.4,0.4-0.4,0.4-0.7,0.7l-2.9,11.1c1.8-1.4,3.6-2.9,5.4-4.3C54.7,233.6,55.8,232.9,56.5,232.5z"/>
			<path opacity="0.369" fill="#FFFFFF" enable-background="new    " d="M56.5,232.5L56.5,232.5c0.7-2.5,1.1-4.7,1.1-4.7l0,0
				c0,0,0.4,1.4,0.7,3.6c1.1-0.7,2.1-1.4,3.2-2.1c0.7-0.4,1.4-0.7,2.1-1.4l-2.1-8.6c-3.2,2.9-6.1,5.4-9.3,8.2
				c-0.4,0.4-0.4,0.4-0.7,0.7l-2.9,11.1c1.8-1.4,3.6-2.9,5.4-4.3C54.7,233.6,55.8,232.9,56.5,232.5z"/>
			<path opacity="0.369" fill="#FFFFFF" enable-background="new    " d="M56.5,232.5L56.5,232.5c0.7-2.5,1.1-4.7,1.1-4.7l0,0
				c0,0,0.4,1.4,0.7,3.6c1.1-0.7,2.1-1.4,3.2-2.1c0.7-0.4,1.4-0.7,2.1-1.4l-2.1-8.6c-3.2,2.9-6.1,5.4-9.3,8.2
				c-0.4,0.4-0.4,0.4-0.7,0.7l-2.9,11.1c1.8-1.4,3.6-2.9,5.4-4.3C54.7,233.6,55.8,232.9,56.5,232.5z"/>
			<path opacity="0.369" fill="#FFFFFF" enable-background="new    " d="M56.5,232.5L56.5,232.5c0.7-2.5,1.1-4.7,1.1-4.7l0,0
				c0,0,0.4,1.4,0.7,3.6c1.1-0.7,2.1-1.4,3.2-2.1c0.7-0.4,1.4-0.7,2.1-1.4l-2.1-8.6c-3.2,2.9-6.1,5.4-9.3,8.2
				c-0.4,0.4-0.4,0.4-0.7,0.7l-2.9,11.1c1.8-1.4,3.6-2.9,5.4-4.3C54.7,233.6,55.8,232.9,56.5,232.5z"/>
			<path opacity="0.369" fill="#FFFFFF" enable-background="new    " d="M56.5,232.5L56.5,232.5c0.7-2.5,1.1-4.7,1.1-4.7l0,0
				c0,0,0.4,1.4,0.7,3.6c1.1-0.7,2.1-1.4,3.2-2.1c0.7-0.4,1.4-0.7,2.1-1.4l-2.1-8.6c-3.2,2.9-6.1,5.4-9.3,8.2
				c-0.4,0.4-0.4,0.4-0.7,0.7l-2.9,11.1c1.8-1.4,3.6-2.9,5.4-4.3C54.7,233.6,55.8,232.9,56.5,232.5z"/>
			<path opacity="0.369" fill="#FFFFFF" enable-background="new    " d="M56.5,232.5L56.5,232.5c0.7-2.5,1.1-4.7,1.1-4.7l0,0
				c0,0,0.4,1.4,0.7,3.6c1.1-0.7,2.1-1.4,3.2-2.1c0.7-0.4,1.4-0.7,2.1-1.4l-2.1-8.6c-3.2,2.9-6.1,5.4-9.3,8.2
				c-0.4,0.4-0.4,0.4-0.7,0.7l-2.9,11.1c1.8-1.4,3.6-2.9,5.4-4.3C54.7,233.6,55.8,232.9,56.5,232.5z"/>
		</g>
	</g>
</g>
</svg>
