<?xml version="1.0" encoding="utf-8"?>
<!-- Generator: Adobe Illustrator 18.1.1, SVG Export Plug-In . SVG Version: 6.00 Build 0)  -->
<svg version="1.1" id="Layer_1" xmlns="http://www.w3.org/2000/svg" xmlns:xlink="http://www.w3.org/1999/xlink" x="0px" y="0px"
	 viewBox="0 0 300 150" enable-background="new 0 0 300 150" xml:space="preserve">
<g>
	<path fill="#FFFFFF" d="M1.8,48.3h24.9v41.4c0,9.3,2.3,11.6,7.2,11.6c4.6,0,7.2-1.7,10.4-6.4V48.3h24.9v72.4H49l-1.7-9.6h-0.6
		c-5.8,7-12.5,11.3-22.3,11.3c-15.9,0-22.6-11.6-22.6-29.5V48.3z"/>
	<path fill="#FFFFFF" d="M106.7,126.2v20H81.8V48.3H102l1.7,6.7h0.6c5.4-4.9,12.5-8.4,19.7-8.4c17.1,0,28.1,14.5,28.1,36.8
		c0,24.9-14.8,39.1-30.1,39.1c-6.1,0-11.6-2.6-16.2-7.2L106.7,126.2z M115.9,102.2c5.8,0,10.7-4.6,10.7-18.5
		c0-11.9-3.5-16.8-10.1-16.8c-3.8,0-6.7,1.4-9.8,5.2v26.7C109.6,101.3,112.8,102.2,115.9,102.2z"/>
	<path fill="#FFFFFF" d="M204.6,39c-2.3-0.9-4.9-1.4-7.2-1.4c-4.6,0-7.5,2.2-7.5,9v1.7H202v19.4h-12.2v53h-24.9v-53h-9.6V49.2
		l9.6-0.7v-1c0-15.5,7.2-29.3,28.7-29.3c6.7,0,12.2,1.4,15.4,2.6L204.6,39z"/>
	<path fill="#FFFFFF" d="M212.7,26.9c0-7.2,5.8-12.5,13.9-12.5s13.9,5.2,13.9,12.5s-5.8,12.5-13.9,12.5S212.7,34.1,212.7,26.9z
		 M214.1,48.3h24.9v72.4h-24.9V48.3z"/>
	<path fill="#FFFFFF" d="M254.7,67.7h-9.6V49.2l11-0.9l2.9-18.8h20.6v18.8h16.5v19.4h-16.5v24.8c0,8,4.1,10.6,8.7,10.6
		c2.3,0,4.6-0.6,6.4-1.2l3.8,18c-3.8,1.2-9.1,2.6-17.1,2.6c-18.8,0-26.6-11.9-26.6-29.5V67.7z"/>
</g>
</svg>
