<?xml version="1.0" encoding="UTF-8" standalone="no"?>
<svg width="60px" height="40px" viewBox="0 0 60 40" version="1.1" xmlns="http://www.w3.org/2000/svg" xmlns:xlink="http://www.w3.org/1999/xlink" xmlns:sketch="http://www.bohemiancoding.com/sketch/ns">
    <!-- Generator: Sketch 3.3.2 (12043) - http://www.bohemiancoding.com/sketch -->
    <title>final</title>
    <desc>Created with Sketch.</desc>
    <defs></defs>
    <g id="Home" stroke="none" stroke-width="1" fill="none" fill-rule="evenodd" sketch:type="MSPage">
        <g id="Desktop-HD" sketch:type="MSArtboardGroup" transform="translate(-580.000000, -3695.000000)" fill="#9C9C9C" opacity="0.369">
            <g id="footer" sketch:type="MSLayerGroup" transform="translate(580.000000, 3695.000000)">
                <g id="final" transform="translate(0.538462, 0.000000)" sketch:type="MSShapeGroup">
                    <g id="Group" transform="translate(35.384615, 12.307692)">
                        <path d="M2.9025641,8.38974359 C3.67179487,7.69230769 4.45128205,7.01538462 5.24102564,6.33846154 C4.11282051,5.82564103 3.27179487,5.28205128 3.27179487,4.36923077 C3.27179487,3.37435897 4.24615385,2.68717949 5.57948718,2.68717949 C6.62564103,2.68717949 7.66153846,3.17948718 7.66153846,3.90769231 L7.66153846,4.31794872 C8.48205128,3.65128205 9.31282051,2.99487179 10.1435897,2.35897436 C9.68205128,1.04615385 8.09230769,0.358974359 6.64615385,0.133333333 C5.0974359,1.45641026 3.57948718,2.81025641 2.08205128,4.19487179 C1.56923077,4.71794872 1.04615385,5.24102564 0.533333333,5.75384615 C0.912820513,6.95384615 1.83589744,7.76410256 2.9025641,8.38974359 L2.9025641,8.38974359 Z" id="Shape"></path>
                        <path d="M2.9025641,8.38974359 C3.67179487,7.69230769 4.45128205,7.01538462 5.24102564,6.33846154 C4.11282051,5.82564103 3.27179487,5.28205128 3.27179487,4.36923077 C3.27179487,3.37435897 4.24615385,2.68717949 5.57948718,2.68717949 C6.62564103,2.68717949 7.66153846,3.17948718 7.66153846,3.90769231 L7.66153846,4.31794872 C8.48205128,3.65128205 9.31282051,2.99487179 10.1435897,2.35897436 C9.68205128,1.04615385 8.09230769,0.358974359 6.64615385,0.133333333 C5.0974359,1.45641026 3.57948718,2.81025641 2.08205128,4.19487179 C1.56923077,4.71794872 1.04615385,5.24102564 0.533333333,5.75384615 C0.912820513,6.95384615 1.83589744,7.76410256 2.9025641,8.38974359 L2.9025641,8.38974359 Z" id="Shape"></path>
                        <path d="M7.74358974,11.8461538 C7.74358974,12.2974359 7.6,12.6666667 7.35384615,12.9538462 C8.4,12.1333333 9.45641026,11.3230769 10.5230769,10.5128205 C9.86666667,8.04102564 7.15897436,7.22051282 5.24102564,6.33846154 C4.45128205,7.01538462 3.67179487,7.7025641 2.9025641,8.38974359 C5.03589744,9.66153846 7.74358974,10.225641 7.74358974,11.8461538 L7.74358974,11.8461538 Z" id="Shape"></path>
                        <path d="M7.74358974,11.8461538 C7.74358974,12.2974359 7.6,12.6666667 7.35384615,12.9538462 C8.4,12.1333333 9.45641026,11.3230769 10.5230769,10.5128205 C9.86666667,8.04102564 7.15897436,7.22051282 5.24102564,6.33846154 C4.45128205,7.01538462 3.67179487,7.7025641 2.9025641,8.38974359 C5.03589744,9.66153846 7.74358974,10.225641 7.74358974,11.8461538 L7.74358974,11.8461538 Z" id="Shape"></path>
                        <path d="M7.74358974,11.8461538 C7.74358974,12.2974359 7.6,12.6666667 7.35384615,12.9538462 C8.4,12.1333333 9.45641026,11.3230769 10.5230769,10.5128205 C9.86666667,8.04102564 7.15897436,7.22051282 5.24102564,6.33846154 C4.45128205,7.01538462 3.67179487,7.7025641 2.9025641,8.38974359 C5.03589744,9.66153846 7.74358974,10.225641 7.74358974,11.8461538 L7.74358974,11.8461538 Z" id="Shape"></path>
                        <path d="M7.74358974,11.8461538 C7.74358974,12.2974359 7.6,12.6666667 7.35384615,12.9538462 C8.4,12.1333333 9.45641026,11.3230769 10.5230769,10.5128205 C9.86666667,8.04102564 7.15897436,7.22051282 5.24102564,6.33846154 C4.45128205,7.01538462 3.67179487,7.7025641 2.9025641,8.38974359 C5.03589744,9.66153846 7.74358974,10.225641 7.74358974,11.8461538 L7.74358974,11.8461538 Z" id="Shape"></path>
                        <path d="M7.66153846,4.61538462 L10.2769231,4.61538462 L10.2769231,3.14871795 C10.2769231,2.86153846 10.225641,2.59487179 10.1435897,2.35897436 C9.3025641,3.00512821 8.48205128,3.65128205 7.66153846,4.31794872 L7.66153846,4.61538462 L7.66153846,4.61538462 Z" id="Shape"></path>
                        <path d="M7.66153846,4.61538462 L10.2769231,4.61538462 L10.2769231,3.14871795 C10.2769231,2.86153846 10.225641,2.59487179 10.1435897,2.35897436 C9.3025641,3.00512821 8.48205128,3.65128205 7.66153846,4.31794872 L7.66153846,4.61538462 L7.66153846,4.61538462 Z" id="Shape"></path>
                        <path d="M7.66153846,4.61538462 L10.2769231,4.61538462 L10.2769231,3.14871795 C10.2769231,2.86153846 10.225641,2.59487179 10.1435897,2.35897436 C9.3025641,3.00512821 8.48205128,3.65128205 7.66153846,4.31794872 L7.66153846,4.61538462 L7.66153846,4.61538462 Z" id="Shape"></path>
                        <path d="M7.66153846,4.61538462 L10.2769231,4.61538462 L10.2769231,3.14871795 C10.2769231,2.86153846 10.225641,2.59487179 10.1435897,2.35897436 C9.3025641,3.00512821 8.48205128,3.65128205 7.66153846,4.31794872 L7.66153846,4.61538462 L7.66153846,4.61538462 Z" id="Shape"></path>
                        <path d="M5.48717949,13.7128205 C3.29230769,13.7128205 1.67179487,11.8461538 1.67179487,11.8461538 L0.0307692308,13.8871795 C0.0307692308,13.8871795 1.24102564,15.4153846 3.46666667,16.0512821 C4.56410256,15.1692308 5.66153846,14.2974359 6.76923077,13.425641 C6.38974359,13.6102564 5.94871795,13.7128205 5.48717949,13.7128205 L5.48717949,13.7128205 Z" id="Shape"></path>
                        <path d="M5.48717949,13.7128205 C3.29230769,13.7128205 1.67179487,11.8461538 1.67179487,11.8461538 L0.0307692308,13.8871795 C0.0307692308,13.8871795 1.24102564,15.4153846 3.46666667,16.0512821 C4.56410256,15.1692308 5.66153846,14.2974359 6.76923077,13.425641 C6.38974359,13.6102564 5.94871795,13.7128205 5.48717949,13.7128205 L5.48717949,13.7128205 Z" id="Shape"></path>
                        <path d="M5.48717949,13.7128205 C3.29230769,13.7128205 1.67179487,11.8461538 1.67179487,11.8461538 L0.0307692308,13.8871795 C0.0307692308,13.8871795 1.24102564,15.4153846 3.46666667,16.0512821 C4.56410256,15.1692308 5.66153846,14.2974359 6.76923077,13.425641 C6.38974359,13.6102564 5.94871795,13.7128205 5.48717949,13.7128205 L5.48717949,13.7128205 Z" id="Shape"></path>
                        <path d="M5.48717949,13.7128205 C3.29230769,13.7128205 1.67179487,11.8461538 1.67179487,11.8461538 L0.0307692308,13.8871795 C0.0307692308,13.8871795 1.24102564,15.4153846 3.46666667,16.0512821 C4.56410256,15.1692308 5.66153846,14.2974359 6.76923077,13.425641 C6.38974359,13.6102564 5.94871795,13.7128205 5.48717949,13.7128205 L5.48717949,13.7128205 Z" id="Shape"></path>
                        <path d="M6.64615385,0.133333333 C6.27692308,0.0717948718 5.91794872,0.0512820513 5.58974359,0.0512820513 C2.55384615,0.0512820513 0.338461538,1.93846154 0.338461538,4.48205128 C0.338461538,4.95384615 0.41025641,5.37435897 0.533333333,5.75384615 C1.04615385,5.23076923 1.56923077,4.70769231 2.08205128,4.19487179 C3.57948718,2.81025641 5.10769231,1.45641026 6.64615385,0.133333333 L6.64615385,0.133333333 Z" id="Shape"></path>
                        <path d="M6.64615385,0.133333333 C6.27692308,0.0717948718 5.91794872,0.0512820513 5.58974359,0.0512820513 C2.55384615,0.0512820513 0.338461538,1.93846154 0.338461538,4.48205128 C0.338461538,4.95384615 0.41025641,5.37435897 0.533333333,5.75384615 C1.04615385,5.23076923 1.56923077,4.70769231 2.08205128,4.19487179 C3.57948718,2.81025641 5.10769231,1.45641026 6.64615385,0.133333333 L6.64615385,0.133333333 Z" id="Shape"></path>
                        <path d="M6.64615385,0.133333333 C6.27692308,0.0717948718 5.91794872,0.0512820513 5.58974359,0.0512820513 C2.55384615,0.0512820513 0.338461538,1.93846154 0.338461538,4.48205128 C0.338461538,4.95384615 0.41025641,5.37435897 0.533333333,5.75384615 C1.04615385,5.23076923 1.56923077,4.70769231 2.08205128,4.19487179 C3.57948718,2.81025641 5.10769231,1.45641026 6.64615385,0.133333333 L6.64615385,0.133333333 Z" id="Shape"></path>
                        <path d="M6.64615385,0.133333333 C6.27692308,0.0717948718 5.91794872,0.0512820513 5.58974359,0.0512820513 C2.55384615,0.0512820513 0.338461538,1.93846154 0.338461538,4.48205128 C0.338461538,4.95384615 0.41025641,5.37435897 0.533333333,5.75384615 C1.04615385,5.23076923 1.56923077,4.70769231 2.08205128,4.19487179 C3.57948718,2.81025641 5.10769231,1.45641026 6.64615385,0.133333333 L6.64615385,0.133333333 Z" id="Shape"></path>
                        <path d="M6.75897436,13.425641 C5.65128205,14.2974359 4.55384615,15.1692308 3.45641026,16.0512821 C4.04102564,16.2153846 4.70769231,16.3282051 5.43589744,16.3282051 C8.73846154,16.3282051 10.6666667,14.1948718 10.6666667,11.6923077 C10.6666667,11.2615385 10.6153846,10.8717949 10.5230769,10.5128205 C9.46666667,11.3230769 8.41025641,12.1333333 7.35384615,12.9538462 C7.2,13.1487179 6.99487179,13.3025641 6.75897436,13.425641 L6.75897436,13.425641 Z" id="Shape"></path>
                        <path d="M6.75897436,13.425641 C5.65128205,14.2974359 4.55384615,15.1692308 3.45641026,16.0512821 C4.04102564,16.2153846 4.70769231,16.3282051 5.43589744,16.3282051 C8.73846154,16.3282051 10.6666667,14.1948718 10.6666667,11.6923077 C10.6666667,11.2615385 10.6153846,10.8717949 10.5230769,10.5128205 C9.46666667,11.3230769 8.41025641,12.1333333 7.35384615,12.9538462 C7.2,13.1487179 6.99487179,13.3025641 6.75897436,13.425641 L6.75897436,13.425641 Z" id="Shape"></path>
                        <path d="M6.75897436,13.425641 C5.65128205,14.2974359 4.55384615,15.1692308 3.45641026,16.0512821 C4.04102564,16.2153846 4.70769231,16.3282051 5.43589744,16.3282051 C8.73846154,16.3282051 10.6666667,14.1948718 10.6666667,11.6923077 C10.6666667,11.2615385 10.6153846,10.8717949 10.5230769,10.5128205 C9.46666667,11.3230769 8.41025641,12.1333333 7.35384615,12.9538462 C7.2,13.1487179 6.99487179,13.3025641 6.75897436,13.425641 L6.75897436,13.425641 Z" id="Shape"></path>
                        <path d="M6.75897436,13.425641 C5.65128205,14.2974359 4.55384615,15.1692308 3.45641026,16.0512821 C4.04102564,16.2153846 4.70769231,16.3282051 5.43589744,16.3282051 C8.73846154,16.3282051 10.6666667,14.1948718 10.6666667,11.6923077 C10.6666667,11.2615385 10.6153846,10.8717949 10.5230769,10.5128205 C9.46666667,11.3230769 8.41025641,12.1333333 7.35384615,12.9538462 C7.2,13.1487179 6.99487179,13.3025641 6.75897436,13.425641 L6.75897436,13.425641 Z" id="Shape"></path>
                        <path d="M6.75897436,13.425641 C5.65128205,14.2974359 4.55384615,15.1692308 3.45641026,16.0512821 C4.04102564,16.2153846 4.70769231,16.3282051 5.43589744,16.3282051 C8.73846154,16.3282051 10.6666667,14.1948718 10.6666667,11.6923077 C10.6666667,11.2615385 10.6153846,10.8717949 10.5230769,10.5128205 C9.46666667,11.3230769 8.41025641,12.1333333 7.35384615,12.9538462 C7.2,13.1487179 6.99487179,13.3025641 6.75897436,13.425641 L6.75897436,13.425641 Z" id="Shape"></path>
                        <path d="M6.75897436,13.425641 C5.65128205,14.2974359 4.55384615,15.1692308 3.45641026,16.0512821 C4.04102564,16.2153846 4.70769231,16.3282051 5.43589744,16.3282051 C8.73846154,16.3282051 10.6666667,14.1948718 10.6666667,11.6923077 C10.6666667,11.2615385 10.6153846,10.8717949 10.5230769,10.5128205 C9.46666667,11.3230769 8.41025641,12.1333333 7.35384615,12.9538462 C7.2,13.1487179 6.99487179,13.3025641 6.75897436,13.425641 L6.75897436,13.425641 Z" id="Shape"></path>
                    </g>
                    <g id="Group">
                        <path d="M8.48205128,14.7384615 L21.7435897,1.47692308 L20.2974359,0.0307692308 L0.574358974,19.7435897 L0.584615385,19.7538462 L0.0615384615,20.2769231 L1.28205128,21.4974359 C3.6,19.1589744 6,16.9025641 8.48205128,14.7384615 L8.48205128,14.7384615 Z" id="Shape"></path>
                        <path d="M8.48205128,14.7384615 L21.7435897,1.47692308 L20.2974359,0.0307692308 L0.574358974,19.7435897 L0.584615385,19.7538462 L0.0615384615,20.2769231 L1.28205128,21.4974359 C3.6,19.1589744 6,16.9025641 8.48205128,14.7384615 L8.48205128,14.7384615 Z" id="Shape"></path>
                        <path d="M8.48205128,14.7384615 L21.7435897,1.47692308 L20.2974359,0.0307692308 L0.574358974,19.7435897 L0.584615385,19.7538462 L0.0615384615,20.2769231 L1.28205128,21.4974359 C3.6,19.1589744 6,16.9025641 8.48205128,14.7384615 L8.48205128,14.7384615 Z" id="Shape"></path>
                        <path d="M8.48205128,14.7384615 L21.7435897,1.47692308 L20.2974359,0.0307692308 L0.574358974,19.7435897 L0.584615385,19.7538462 L0.0615384615,20.2769231 L1.28205128,21.4974359 C3.6,19.1589744 6,16.9025641 8.48205128,14.7384615 L8.48205128,14.7384615 Z" id="Shape"></path>
                        <path d="M15.3025641,35.5179487 L19.7846154,40 L21.2307692,38.5538462 L16.8,34.1230769 C16.625641,34.2666667 16.4512821,34.4102564 16.2871795,34.5641026 C15.9692308,34.8820513 15.6307692,35.2 15.3025641,35.5179487 L15.3025641,35.5179487 Z" id="Shape"></path>
                        <path d="M15.3025641,35.5179487 L19.7846154,40 L21.2307692,38.5538462 L16.8,34.1230769 C16.625641,34.2666667 16.4512821,34.4102564 16.2871795,34.5641026 C15.9692308,34.8820513 15.6307692,35.2 15.3025641,35.5179487 L15.3025641,35.5179487 Z" id="Shape"></path>
                        <path d="M8.57435897,27.9589744 C8.86153846,27.5589744 9.14871795,27.1589744 9.44615385,26.7589744 L2.96410256,20.2769231 L8.49230769,14.7487179 C6.01025641,16.9128205 3.61025641,19.1692308 1.29230769,21.5076923 L8.23589744,28.4512821 C8.33846154,28.2769231 8.45128205,28.1128205 8.57435897,27.9589744 L8.57435897,27.9589744 Z" id="Shape"></path>
                        <path d="M8.57435897,27.9589744 C8.86153846,27.5589744 9.14871795,27.1589744 9.44615385,26.7589744 L2.96410256,20.2769231 L8.49230769,14.7487179 C6.01025641,16.9128205 3.61025641,19.1692308 1.29230769,21.5076923 L8.23589744,28.4512821 C8.33846154,28.2769231 8.45128205,28.1128205 8.57435897,27.9589744 L8.57435897,27.9589744 Z" id="Shape"></path>
                        <path d="M8.57435897,27.9589744 C8.86153846,27.5589744 9.14871795,27.1589744 9.44615385,26.7589744 L2.96410256,20.2769231 L8.49230769,14.7487179 C6.01025641,16.9128205 3.61025641,19.1692308 1.29230769,21.5076923 L8.23589744,28.4512821 C8.33846154,28.2769231 8.45128205,28.1128205 8.57435897,27.9589744 L8.57435897,27.9589744 Z" id="Shape"></path>
                        <path d="M8.57435897,27.9589744 C8.86153846,27.5589744 9.14871795,27.1589744 9.44615385,26.7589744 L2.96410256,20.2769231 L8.49230769,14.7487179 C6.01025641,16.9128205 3.61025641,19.1692308 1.29230769,21.5076923 L8.23589744,28.4512821 C8.33846154,28.2769231 8.45128205,28.1128205 8.57435897,27.9589744 L8.57435897,27.9589744 Z" id="Shape"></path>
                        <path d="M8.57435897,27.9589744 C8.86153846,27.5589744 9.14871795,27.1589744 9.44615385,26.7589744 L2.96410256,20.2769231 L8.49230769,14.7487179 C6.01025641,16.9128205 3.61025641,19.1692308 1.29230769,21.5076923 L8.23589744,28.4512821 C8.33846154,28.2769231 8.45128205,28.1128205 8.57435897,27.9589744 L8.57435897,27.9589744 Z" id="Shape"></path>
                        <path d="M8.57435897,27.9589744 C8.86153846,27.5589744 9.14871795,27.1589744 9.44615385,26.7589744 L2.96410256,20.2769231 L8.49230769,14.7487179 C6.01025641,16.9128205 3.61025641,19.1692308 1.29230769,21.5076923 L8.23589744,28.4512821 C8.33846154,28.2769231 8.45128205,28.1128205 8.57435897,27.9589744 L8.57435897,27.9589744 Z" id="Shape"></path>
                        <path d="M10.4820513,29.8769231 C10.4923077,30.1538462 10.5025641,30.4410256 10.5025641,30.7179487 L15.3025641,35.5179487 C15.6307692,35.2 15.9589744,34.8820513 16.2974359,34.5641026 C16.4717949,34.4205128 16.6461538,34.2769231 16.8102564,34.1230769 L11.0564103,28.3692308 C10.9025641,28.6051282 10.7384615,28.8512821 10.5846154,29.0871795 C10.5538462,29.3538462 10.5128205,29.6102564 10.4820513,29.8769231 L10.4820513,29.8769231 Z" id="Shape"></path>
                        <path d="M10.4820513,29.8769231 C10.4923077,30.1538462 10.5025641,30.4410256 10.5025641,30.7179487 L15.3025641,35.5179487 C15.6307692,35.2 15.9589744,34.8820513 16.2974359,34.5641026 C16.4717949,34.4205128 16.6461538,34.2769231 16.8102564,34.1230769 L11.0564103,28.3692308 C10.9025641,28.6051282 10.7384615,28.8512821 10.5846154,29.0871795 C10.5538462,29.3538462 10.5128205,29.6102564 10.4820513,29.8769231 L10.4820513,29.8769231 Z" id="Shape"></path>
                        <path d="M10.4820513,29.8769231 C10.4923077,30.1538462 10.5025641,30.4410256 10.5025641,30.7179487 L15.3025641,35.5179487 C15.6307692,35.2 15.9589744,34.8820513 16.2974359,34.5641026 C16.4717949,34.4205128 16.6461538,34.2769231 16.8102564,34.1230769 L11.0564103,28.3692308 C10.9025641,28.6051282 10.7384615,28.8512821 10.5846154,29.0871795 C10.5538462,29.3538462 10.5128205,29.6102564 10.4820513,29.8769231 L10.4820513,29.8769231 Z" id="Shape"></path>
                        <path d="M10.4820513,29.8769231 C10.4923077,30.1538462 10.5025641,30.4410256 10.5025641,30.7179487 L15.3025641,35.5179487 C15.6307692,35.2 15.9589744,34.8820513 16.2974359,34.5641026 C16.4717949,34.4205128 16.6461538,34.2769231 16.8102564,34.1230769 L11.0564103,28.3692308 C10.9025641,28.6051282 10.7384615,28.8512821 10.5846154,29.0871795 C10.5538462,29.3538462 10.5128205,29.6102564 10.4820513,29.8769231 L10.4820513,29.8769231 Z" id="Shape"></path>
                        <path id="Shape" d="M10.5846154,29.0871795 C10.7384615,28.8512821 10.9025641,28.6051282 11.0564103,28.3692308 L10.7487179,28.0615385 C10.6871795,28.4 10.6358974,28.7487179 10.5846154,29.0871795 L10.5846154,29.0871795 Z"></path>
                        <path id="Shape" d="M10.5846154,29.0871795 C10.7384615,28.8512821 10.9025641,28.6051282 11.0564103,28.3692308 L10.7487179,28.0615385 C10.6871795,28.4 10.6358974,28.7487179 10.5846154,29.0871795 L10.5846154,29.0871795 Z"></path>
                        <path id="Shape" d="M10.5846154,29.0871795 C10.7384615,28.8512821 10.9025641,28.6051282 11.0564103,28.3692308 L10.7487179,28.0615385 C10.6871795,28.4 10.6358974,28.7487179 10.5846154,29.0871795 L10.5846154,29.0871795 Z"></path>
                        <path id="Shape" d="M10.5846154,29.0871795 C10.7384615,28.8512821 10.9025641,28.6051282 11.0564103,28.3692308 L10.7487179,28.0615385 C10.6871795,28.4 10.6358974,28.7487179 10.5846154,29.0871795 L10.5846154,29.0871795 Z"></path>
                        <path id="Shape" d="M10.5846154,29.0871795 C10.7384615,28.8512821 10.9025641,28.6051282 11.0564103,28.3692308 L10.7487179,28.0615385 C10.6871795,28.4 10.6358974,28.7487179 10.5846154,29.0871795 L10.5846154,29.0871795 Z"></path>
                        <path id="Shape" d="M10.5846154,29.0871795 C10.7384615,28.8512821 10.9025641,28.6051282 11.0564103,28.3692308 L10.7487179,28.0615385 C10.6871795,28.4 10.6358974,28.7487179 10.5846154,29.0871795 L10.5846154,29.0871795 Z"></path>
                        <path d="M10.5846154,29.0871795 C10.3589744,29.4358974 10.1333333,29.7846154 9.91794872,30.1333333 L10.5025641,30.7179487 C10.4923077,30.4410256 10.4923077,30.1538462 10.4820513,29.8769231 C10.5128205,29.6102564 10.5538462,29.3538462 10.5846154,29.0871795 L10.5846154,29.0871795 Z" id="Shape"></path>
                        <path d="M10.5846154,29.0871795 C10.3589744,29.4358974 10.1333333,29.7846154 9.91794872,30.1333333 L10.5025641,30.7179487 C10.4923077,30.4410256 10.4923077,30.1538462 10.4820513,29.8769231 C10.5128205,29.6102564 10.5538462,29.3538462 10.5846154,29.0871795 L10.5846154,29.0871795 Z" id="Shape"></path>
                        <path d="M10.5846154,29.0871795 C10.3589744,29.4358974 10.1333333,29.7846154 9.91794872,30.1333333 L10.5025641,30.7179487 C10.4923077,30.4410256 10.4923077,30.1538462 10.4820513,29.8769231 C10.5128205,29.6102564 10.5538462,29.3538462 10.5846154,29.0871795 L10.5846154,29.0871795 Z" id="Shape"></path>
                        <path d="M10.5846154,29.0871795 C10.3589744,29.4358974 10.1333333,29.7846154 9.91794872,30.1333333 L10.5025641,30.7179487 C10.4923077,30.4410256 10.4923077,30.1538462 10.4820513,29.8769231 C10.5128205,29.6102564 10.5538462,29.3538462 10.5846154,29.0871795 L10.5846154,29.0871795 Z" id="Shape"></path>
                        <path d="M10.5846154,29.0871795 C10.3589744,29.4358974 10.1333333,29.7846154 9.91794872,30.1333333 L10.5025641,30.7179487 C10.4923077,30.4410256 10.4923077,30.1538462 10.4820513,29.8769231 C10.5128205,29.6102564 10.5538462,29.3538462 10.5846154,29.0871795 L10.5846154,29.0871795 Z" id="Shape"></path>
                        <path d="M10.5846154,29.0871795 C10.3589744,29.4358974 10.1333333,29.7846154 9.91794872,30.1333333 L10.5025641,30.7179487 C10.4923077,30.4410256 10.4923077,30.1538462 10.4820513,29.8769231 C10.5128205,29.6102564 10.5538462,29.3538462 10.5846154,29.0871795 L10.5846154,29.0871795 Z" id="Shape"></path>
                        <path d="M8.22564103,28.4410256 L9.91794872,30.1333333 C10.1435897,29.7846154 10.3589744,29.4358974 10.5846154,29.0871795 C10.6358974,28.7384615 10.6871795,28.4 10.7487179,28.0615385 L9.43589744,26.7487179 C9.14871795,27.1487179 8.86153846,27.5487179 8.56410256,27.9487179 C8.45128205,28.1128205 8.33846154,28.2769231 8.22564103,28.4410256 L8.22564103,28.4410256 Z" id="Shape"></path>
                        <path d="M8.22564103,28.4410256 L9.91794872,30.1333333 C10.1435897,29.7846154 10.3589744,29.4358974 10.5846154,29.0871795 C10.6358974,28.7384615 10.6871795,28.4 10.7487179,28.0615385 L9.43589744,26.7487179 C9.14871795,27.1487179 8.86153846,27.5487179 8.56410256,27.9487179 C8.45128205,28.1128205 8.33846154,28.2769231 8.22564103,28.4410256 L8.22564103,28.4410256 Z" id="Shape"></path>
                        <path d="M8.22564103,28.4410256 L9.91794872,30.1333333 C10.1435897,29.7846154 10.3589744,29.4358974 10.5846154,29.0871795 C10.6358974,28.7384615 10.6871795,28.4 10.7487179,28.0615385 L9.43589744,26.7487179 C9.14871795,27.1487179 8.86153846,27.5487179 8.56410256,27.9487179 C8.45128205,28.1128205 8.33846154,28.2769231 8.22564103,28.4410256 L8.22564103,28.4410256 Z" id="Shape"></path>
                        <path d="M8.22564103,28.4410256 L9.91794872,30.1333333 C10.1435897,29.7846154 10.3589744,29.4358974 10.5846154,29.0871795 C10.6358974,28.7384615 10.6871795,28.4 10.7487179,28.0615385 L9.43589744,26.7487179 C9.14871795,27.1487179 8.86153846,27.5487179 8.56410256,27.9487179 C8.45128205,28.1128205 8.33846154,28.2769231 8.22564103,28.4410256 L8.22564103,28.4410256 Z" id="Shape"></path>
                        <path d="M8.22564103,28.4410256 L9.91794872,30.1333333 C10.1435897,29.7846154 10.3589744,29.4358974 10.5846154,29.0871795 C10.6358974,28.7384615 10.6871795,28.4 10.7487179,28.0615385 L9.43589744,26.7487179 C9.14871795,27.1487179 8.86153846,27.5487179 8.56410256,27.9487179 C8.45128205,28.1128205 8.33846154,28.2769231 8.22564103,28.4410256 L8.22564103,28.4410256 Z" id="Shape"></path>
                        <path d="M8.22564103,28.4410256 L9.91794872,30.1333333 C10.1435897,29.7846154 10.3589744,29.4358974 10.5846154,29.0871795 C10.6358974,28.7384615 10.6871795,28.4 10.7487179,28.0615385 L9.43589744,26.7487179 C9.14871795,27.1487179 8.86153846,27.5487179 8.56410256,27.9487179 C8.45128205,28.1128205 8.33846154,28.2769231 8.22564103,28.4410256 L8.22564103,28.4410256 Z" id="Shape"></path>
                        <path d="M8.22564103,28.4410256 L9.91794872,30.1333333 C10.1435897,29.7846154 10.3589744,29.4358974 10.5846154,29.0871795 C10.6358974,28.7384615 10.6871795,28.4 10.7487179,28.0615385 L9.43589744,26.7487179 C9.14871795,27.1487179 8.86153846,27.5487179 8.56410256,27.9487179 C8.45128205,28.1128205 8.33846154,28.2769231 8.22564103,28.4410256 L8.22564103,28.4410256 Z" id="Shape"></path>
                        <path d="M8.22564103,28.4410256 L9.91794872,30.1333333 C10.1435897,29.7846154 10.3589744,29.4358974 10.5846154,29.0871795 C10.6358974,28.7384615 10.6871795,28.4 10.7487179,28.0615385 L9.43589744,26.7487179 C9.14871795,27.1487179 8.86153846,27.5487179 8.56410256,27.9487179 C8.45128205,28.1128205 8.33846154,28.2769231 8.22564103,28.4410256 L8.22564103,28.4410256 Z" id="Shape"></path>
                    </g>
                    <g id="Group" transform="translate(37.128205, 0.000000)">
                        <path d="M1.42564103,38.4717949 L2.9025641,39.9487179 L4.43076923,38.4205128 C3.85641026,38.0102564 3.27179487,37.6 2.6974359,37.2 L1.42564103,38.4717949 L1.42564103,38.4717949 Z" id="Shape"></path>
                        <path d="M1.42564103,38.4717949 L2.9025641,39.9487179 L4.43076923,38.4205128 C3.85641026,38.0102564 3.27179487,37.6 2.6974359,37.2 L1.42564103,38.4717949 L1.42564103,38.4717949 Z" id="Shape"></path>
                        <path d="M5.74358974,6.96410256 C5.57948718,6.89230769 5.41538462,6.82051282 5.25128205,6.74871795 L19.2,20.6974359 L2.68717949,37.2102564 C3.26153846,37.6205128 3.84615385,38.0307692 4.42051282,38.4307692 L22.1538462,20.6974359 L20.7384615,19.2820513 L20.7487179,19.2717949 L12.0615385,10.5846154 C11.2307692,10.0615385 10.4,9.53846154 9.57948718,9.01538462 C8.2974359,8.33846154 7.02564103,7.65128205 5.74358974,6.96410256 L5.74358974,6.96410256 Z" id="Shape"></path>
                        <path d="M5.74358974,6.96410256 C5.57948718,6.89230769 5.41538462,6.82051282 5.25128205,6.74871795 L19.2,20.6974359 L2.68717949,37.2102564 C3.26153846,37.6205128 3.84615385,38.0307692 4.42051282,38.4307692 L22.1538462,20.6974359 L20.7384615,19.2820513 L20.7487179,19.2717949 L12.0615385,10.5846154 C11.2307692,10.0615385 10.4,9.53846154 9.57948718,9.01538462 C8.2974359,8.33846154 7.02564103,7.65128205 5.74358974,6.96410256 L5.74358974,6.96410256 Z" id="Shape"></path>
                        <path d="M5.74358974,6.96410256 C5.57948718,6.89230769 5.41538462,6.82051282 5.25128205,6.74871795 L19.2,20.6974359 L2.68717949,37.2102564 C3.26153846,37.6205128 3.84615385,38.0307692 4.42051282,38.4307692 L22.1538462,20.6974359 L20.7384615,19.2820513 L20.7487179,19.2717949 L12.0615385,10.5846154 C11.2307692,10.0615385 10.4,9.53846154 9.57948718,9.01538462 C8.2974359,8.33846154 7.02564103,7.65128205 5.74358974,6.96410256 L5.74358974,6.96410256 Z" id="Shape"></path>
                        <path d="M5.74358974,6.96410256 C5.57948718,6.89230769 5.41538462,6.82051282 5.25128205,6.74871795 L19.2,20.6974359 L2.68717949,37.2102564 C3.26153846,37.6205128 3.84615385,38.0307692 4.42051282,38.4307692 L22.1538462,20.6974359 L20.7384615,19.2820513 L20.7487179,19.2717949 L12.0615385,10.5846154 C11.2307692,10.0615385 10.4,9.53846154 9.57948718,9.01538462 C8.2974359,8.33846154 7.02564103,7.65128205 5.74358974,6.96410256 L5.74358974,6.96410256 Z" id="Shape"></path>
                        <path d="M0.0102564103,1.4974359 L5.25128205,6.73846154 C5.41538462,6.81025641 5.57948718,6.88205128 5.74358974,6.95384615 C7.01538462,7.64102564 8.2974359,8.32820513 9.56923077,9.00512821 C10.4,9.52820513 11.2307692,10.0512821 12.0512821,10.574359 L1.48717949,0.0102564103 L0.0102564103,1.4974359 L0.0102564103,1.4974359 Z" id="Shape"></path>
                        <path d="M0.0102564103,1.4974359 L5.25128205,6.73846154 C5.41538462,6.81025641 5.57948718,6.88205128 5.74358974,6.95384615 C7.01538462,7.64102564 8.2974359,8.32820513 9.56923077,9.00512821 C10.4,9.52820513 11.2307692,10.0512821 12.0512821,10.574359 L1.48717949,0.0102564103 L0.0102564103,1.4974359 L0.0102564103,1.4974359 Z" id="Shape"></path>
                        <path d="M0.0102564103,1.4974359 L5.25128205,6.73846154 C5.41538462,6.81025641 5.57948718,6.88205128 5.74358974,6.95384615 C7.01538462,7.64102564 8.2974359,8.32820513 9.56923077,9.00512821 C10.4,9.52820513 11.2307692,10.0512821 12.0512821,10.574359 L1.48717949,0.0102564103 L0.0102564103,1.4974359 L0.0102564103,1.4974359 Z" id="Shape"></path>
                        <path d="M0.0102564103,1.4974359 L5.25128205,6.73846154 C5.41538462,6.81025641 5.57948718,6.88205128 5.74358974,6.95384615 C7.01538462,7.64102564 8.2974359,8.32820513 9.56923077,9.00512821 C10.4,9.52820513 11.2307692,10.0512821 12.0512821,10.574359 L1.48717949,0.0102564103 L0.0102564103,1.4974359 L0.0102564103,1.4974359 Z" id="Shape"></path>
                        <path d="M0.0102564103,1.4974359 L5.25128205,6.73846154 C5.41538462,6.81025641 5.57948718,6.88205128 5.74358974,6.95384615 C7.01538462,7.64102564 8.2974359,8.32820513 9.56923077,9.00512821 C10.4,9.52820513 11.2307692,10.0512821 12.0512821,10.574359 L1.48717949,0.0102564103 L0.0102564103,1.4974359 L0.0102564103,1.4974359 Z" id="Shape"></path>
                        <path d="M0.0102564103,1.4974359 L5.25128205,6.73846154 C5.41538462,6.81025641 5.57948718,6.88205128 5.74358974,6.95384615 C7.01538462,7.64102564 8.2974359,8.32820513 9.56923077,9.00512821 C10.4,9.52820513 11.2307692,10.0512821 12.0512821,10.574359 L1.48717949,0.0102564103 L0.0102564103,1.4974359 L0.0102564103,1.4974359 Z" id="Shape"></path>
                    </g>
                    <g id="Group" transform="translate(13.128205, 12.615385)">
                        <path id="Shape" d="M9.53846154,0.0512820513 L9.46666667,0.297435897 C9.61025641,0.215384615 9.75384615,0.133333333 9.8974359,0.0512820513 L9.53846154,0.0512820513 L9.53846154,0.0512820513 Z"></path>
                        <path id="Shape" d="M9.53846154,0.0512820513 L9.46666667,0.297435897 C9.61025641,0.215384615 9.75384615,0.133333333 9.8974359,0.0512820513 L9.53846154,0.0512820513 L9.53846154,0.0512820513 Z"></path>
                        <path d="M0.0512820513,0.687179487 C0.358974359,0.461538462 0.666666667,0.235897436 0.974358974,0 L0.0512820513,0 L0.0512820513,0.687179487 L0.0512820513,0.687179487 Z" id="Shape"></path>
                        <path d="M0.0512820513,0.687179487 C0.358974359,0.461538462 0.666666667,0.235897436 0.974358974,0 L0.0512820513,0 L0.0512820513,0.687179487 L0.0512820513,0.687179487 Z" id="Shape"></path>
                        <path d="M0.0512820513,2.47179487 L0.471794872,2.47179487 C0.851282051,2.47179487 1.0974359,2.58461538 1.17948718,2.96410256 L1.75384615,5.24102564 C2.61538462,4.61538462 3.48717949,4.01025641 4.36923077,3.42564103 L3.88717949,1.3025641 C3.64102564,0.287179487 3.04615385,0.0205128205 1.93846154,0.0205128205 L0.974358974,0.0205128205 C0.666666667,0.246153846 0.358974359,0.471794872 0.0512820513,0.707692308 L0.0512820513,2.47179487 L0.0512820513,2.47179487 Z" id="Shape"></path>
                        <path d="M0.0512820513,2.47179487 L0.471794872,2.47179487 C0.851282051,2.47179487 1.0974359,2.58461538 1.17948718,2.96410256 L1.75384615,5.24102564 C2.61538462,4.61538462 3.48717949,4.01025641 4.36923077,3.42564103 L3.88717949,1.3025641 C3.64102564,0.287179487 3.04615385,0.0205128205 1.93846154,0.0205128205 L0.974358974,0.0205128205 C0.666666667,0.246153846 0.358974359,0.471794872 0.0512820513,0.707692308 L0.0512820513,2.47179487 L0.0512820513,2.47179487 Z" id="Shape"></path>
                        <path d="M0.0512820513,2.47179487 L0.471794872,2.47179487 C0.851282051,2.47179487 1.0974359,2.58461538 1.17948718,2.96410256 L1.75384615,5.24102564 C2.61538462,4.61538462 3.48717949,4.01025641 4.36923077,3.42564103 L3.88717949,1.3025641 C3.64102564,0.287179487 3.04615385,0.0205128205 1.93846154,0.0205128205 L0.974358974,0.0205128205 C0.666666667,0.246153846 0.358974359,0.471794872 0.0512820513,0.707692308 L0.0512820513,2.47179487 L0.0512820513,2.47179487 Z" id="Shape"></path>
                        <path d="M0.0512820513,2.47179487 L0.471794872,2.47179487 C0.851282051,2.47179487 1.0974359,2.58461538 1.17948718,2.96410256 L1.75384615,5.24102564 C2.61538462,4.61538462 3.48717949,4.01025641 4.36923077,3.42564103 L3.88717949,1.3025641 C3.64102564,0.287179487 3.04615385,0.0205128205 1.93846154,0.0205128205 L0.974358974,0.0205128205 C0.666666667,0.246153846 0.358974359,0.471794872 0.0512820513,0.707692308 L0.0512820513,2.47179487 L0.0512820513,2.47179487 Z" id="Shape"></path>
                        <path d="M13.5179487,15.5384615 L13.5692308,15.7435897 L16.9230769,15.7435897 L17.5076923,13.4666667 C16.5846154,13.9179487 15.6615385,14.3794872 14.7384615,14.8307692 C14.3282051,15.0769231 13.9179487,15.3128205 13.5179487,15.5384615 L13.5179487,15.5384615 Z" id="Shape"></path>
                        <path d="M13.5179487,15.5384615 L13.5692308,15.7435897 L16.9230769,15.7435897 L17.5076923,13.4666667 C16.5846154,13.9179487 15.6615385,14.3794872 14.7384615,14.8307692 C14.3282051,15.0769231 13.9179487,15.3128205 13.5179487,15.5384615 L13.5179487,15.5384615 Z" id="Shape"></path>
                        <path d="M2.18461538,6.9025641 L3.03589744,10.2461538 C3.78461538,9.37435897 4.55384615,8.52307692 5.35384615,7.68205128 L4.43076923,3.66153846 C3.87692308,4.43076923 3.31282051,5.18974359 2.75897436,5.95897436 C2.55384615,6.27692308 2.36923077,6.58461538 2.18461538,6.9025641 L2.18461538,6.9025641 Z" id="Shape"></path>
                        <path d="M2.18461538,6.9025641 L3.03589744,10.2461538 C3.78461538,9.37435897 4.55384615,8.52307692 5.35384615,7.68205128 L4.43076923,3.66153846 C3.87692308,4.43076923 3.31282051,5.18974359 2.75897436,5.95897436 C2.55384615,6.27692308 2.36923077,6.58461538 2.18461538,6.9025641 L2.18461538,6.9025641 Z" id="Shape"></path>
                        <path d="M2.18461538,6.9025641 L3.03589744,10.2461538 C3.78461538,9.37435897 4.55384615,8.52307692 5.35384615,7.68205128 L4.43076923,3.66153846 C3.87692308,4.43076923 3.31282051,5.18974359 2.75897436,5.95897436 C2.55384615,6.27692308 2.36923077,6.58461538 2.18461538,6.9025641 L2.18461538,6.9025641 Z" id="Shape"></path>
                        <path d="M2.18461538,6.9025641 L3.03589744,10.2461538 C3.78461538,9.37435897 4.55384615,8.52307692 5.35384615,7.68205128 L4.43076923,3.66153846 C3.87692308,4.43076923 3.31282051,5.18974359 2.75897436,5.95897436 C2.55384615,6.27692308 2.36923077,6.58461538 2.18461538,6.9025641 L2.18461538,6.9025641 Z" id="Shape"></path>
                        <path d="M12.2974359,1.25128205 L11.9897436,0.0615384615 L9.8974359,0.0615384615 C9.75384615,0.143589744 9.61025641,0.225641026 9.46666667,0.307692308 L8.24615385,4.86153846 C8.32820513,4.78974359 8.41025641,4.70769231 8.49230769,4.63589744 C9.75384615,3.4974359 11.0153846,2.35897436 12.2974359,1.25128205 L12.2974359,1.25128205 Z" id="Shape"></path>
                        <path d="M12.2974359,1.25128205 L11.9897436,0.0615384615 L9.8974359,0.0615384615 C9.75384615,0.143589744 9.61025641,0.225641026 9.46666667,0.307692308 L8.24615385,4.86153846 C8.32820513,4.78974359 8.41025641,4.70769231 8.49230769,4.63589744 C9.75384615,3.4974359 11.0153846,2.35897436 12.2974359,1.25128205 L12.2974359,1.25128205 Z" id="Shape"></path>
                        <path d="M12.2974359,1.25128205 L11.9897436,0.0615384615 L9.8974359,0.0615384615 C9.75384615,0.143589744 9.61025641,0.225641026 9.46666667,0.307692308 L8.24615385,4.86153846 C8.32820513,4.78974359 8.41025641,4.70769231 8.49230769,4.63589744 C9.75384615,3.4974359 11.0153846,2.35897436 12.2974359,1.25128205 L12.2974359,1.25128205 Z" id="Shape"></path>
                        <path d="M12.2974359,1.25128205 L11.9897436,0.0615384615 L9.8974359,0.0615384615 C9.75384615,0.143589744 9.61025641,0.225641026 9.46666667,0.307692308 L8.24615385,4.86153846 C8.32820513,4.78974359 8.41025641,4.70769231 8.49230769,4.63589744 C9.75384615,3.4974359 11.0153846,2.35897436 12.2974359,1.25128205 L12.2974359,1.25128205 Z" id="Shape"></path>
                        <path d="M2.18461538,6.9025641 C2.36923077,6.58461538 2.56410256,6.27692308 2.75897436,5.96923077 C3.31282051,5.2 3.87692308,4.44102564 4.43076923,3.67179487 L4.36923077,3.41538462 C3.48717949,4 2.61538462,4.60512821 1.75384615,5.23076923 L2.18461538,6.9025641 L2.18461538,6.9025641 Z" id="Shape"></path>
                        <path d="M2.18461538,6.9025641 C2.36923077,6.58461538 2.56410256,6.27692308 2.75897436,5.96923077 C3.31282051,5.2 3.87692308,4.44102564 4.43076923,3.67179487 L4.36923077,3.41538462 C3.48717949,4 2.61538462,4.60512821 1.75384615,5.23076923 L2.18461538,6.9025641 L2.18461538,6.9025641 Z" id="Shape"></path>
                        <path d="M2.18461538,6.9025641 C2.36923077,6.58461538 2.56410256,6.27692308 2.75897436,5.96923077 C3.31282051,5.2 3.87692308,4.44102564 4.43076923,3.67179487 L4.36923077,3.41538462 C3.48717949,4 2.61538462,4.60512821 1.75384615,5.23076923 L2.18461538,6.9025641 L2.18461538,6.9025641 Z" id="Shape"></path>
                        <path d="M2.18461538,6.9025641 C2.36923077,6.58461538 2.56410256,6.27692308 2.75897436,5.96923077 C3.31282051,5.2 3.87692308,4.44102564 4.43076923,3.67179487 L4.36923077,3.41538462 C3.48717949,4 2.61538462,4.60512821 1.75384615,5.23076923 L2.18461538,6.9025641 L2.18461538,6.9025641 Z" id="Shape"></path>
                        <path d="M2.18461538,6.9025641 C2.36923077,6.58461538 2.56410256,6.27692308 2.75897436,5.96923077 C3.31282051,5.2 3.87692308,4.44102564 4.43076923,3.67179487 L4.36923077,3.41538462 C3.48717949,4 2.61538462,4.60512821 1.75384615,5.23076923 L2.18461538,6.9025641 L2.18461538,6.9025641 Z" id="Shape"></path>
                        <path d="M2.18461538,6.9025641 C2.36923077,6.58461538 2.56410256,6.27692308 2.75897436,5.96923077 C3.31282051,5.2 3.87692308,4.44102564 4.43076923,3.67179487 L4.36923077,3.41538462 C3.48717949,4 2.61538462,4.60512821 1.75384615,5.23076923 L2.18461538,6.9025641 L2.18461538,6.9025641 Z" id="Shape"></path>
                        <path d="M11.0564103,6.32820513 C11.0974359,6.49230769 11.1384615,6.66666667 11.1794872,6.83076923 L13.5179487,15.5384615 C13.9282051,15.3025641 14.3282051,15.0769231 14.7384615,14.8410256 C15.6615385,14.3897436 16.5846154,13.9282051 17.5076923,13.4769231 L20.2051282,2.95384615 C20.2974359,2.57435897 20.5128205,2.46153846 20.9128205,2.46153846 L21.3333333,2.46153846 L21.3333333,0.379487179 C19.9384615,1.02564103 18.574359,1.71282051 17.2307692,2.45128205 L15.3230769,10.6666667 C15.1282051,11.5487179 15.0564103,12.3282051 15.0564103,12.3282051 L15.0153846,12.3282051 C15.0153846,12.3282051 14.9538462,11.5794872 14.7076923,10.6666667 L13.2307692,4.85128205 C12.9333333,5.03589744 12.6461538,5.22051282 12.3487179,5.39487179 C11.9076923,5.72307692 11.4871795,6.02051282 11.0564103,6.32820513 L11.0564103,6.32820513 Z" id="Shape"></path>
                        <path d="M11.0564103,6.32820513 C11.0974359,6.49230769 11.1384615,6.66666667 11.1794872,6.83076923 L13.5179487,15.5384615 C13.9282051,15.3025641 14.3282051,15.0769231 14.7384615,14.8410256 C15.6615385,14.3897436 16.5846154,13.9282051 17.5076923,13.4769231 L20.2051282,2.95384615 C20.2974359,2.57435897 20.5128205,2.46153846 20.9128205,2.46153846 L21.3333333,2.46153846 L21.3333333,0.379487179 C19.9384615,1.02564103 18.574359,1.71282051 17.2307692,2.45128205 L15.3230769,10.6666667 C15.1282051,11.5487179 15.0564103,12.3282051 15.0564103,12.3282051 L15.0153846,12.3282051 C15.0153846,12.3282051 14.9538462,11.5794872 14.7076923,10.6666667 L13.2307692,4.85128205 C12.9333333,5.03589744 12.6461538,5.22051282 12.3487179,5.39487179 C11.9076923,5.72307692 11.4871795,6.02051282 11.0564103,6.32820513 L11.0564103,6.32820513 Z" id="Shape"></path>
                        <path d="M11.0564103,6.32820513 C11.0974359,6.49230769 11.1384615,6.66666667 11.1794872,6.83076923 L13.5179487,15.5384615 C13.9282051,15.3025641 14.3282051,15.0769231 14.7384615,14.8410256 C15.6615385,14.3897436 16.5846154,13.9282051 17.5076923,13.4769231 L20.2051282,2.95384615 C20.2974359,2.57435897 20.5128205,2.46153846 20.9128205,2.46153846 L21.3333333,2.46153846 L21.3333333,0.379487179 C19.9384615,1.02564103 18.574359,1.71282051 17.2307692,2.45128205 L15.3230769,10.6666667 C15.1282051,11.5487179 15.0564103,12.3282051 15.0564103,12.3282051 L15.0153846,12.3282051 C15.0153846,12.3282051 14.9538462,11.5794872 14.7076923,10.6666667 L13.2307692,4.85128205 C12.9333333,5.03589744 12.6461538,5.22051282 12.3487179,5.39487179 C11.9076923,5.72307692 11.4871795,6.02051282 11.0564103,6.32820513 L11.0564103,6.32820513 Z" id="Shape"></path>
                        <path d="M11.0564103,6.32820513 C11.0974359,6.49230769 11.1384615,6.66666667 11.1794872,6.83076923 L13.5179487,15.5384615 C13.9282051,15.3025641 14.3282051,15.0769231 14.7384615,14.8410256 C15.6615385,14.3897436 16.5846154,13.9282051 17.5076923,13.4769231 L20.2051282,2.95384615 C20.2974359,2.57435897 20.5128205,2.46153846 20.9128205,2.46153846 L21.3333333,2.46153846 L21.3333333,0.379487179 C19.9384615,1.02564103 18.574359,1.71282051 17.2307692,2.45128205 L15.3230769,10.6666667 C15.1282051,11.5487179 15.0564103,12.3282051 15.0564103,12.3282051 L15.0153846,12.3282051 C15.0153846,12.3282051 14.9538462,11.5794872 14.7076923,10.6666667 L13.2307692,4.85128205 C12.9333333,5.03589744 12.6461538,5.22051282 12.3487179,5.39487179 C11.9076923,5.72307692 11.4871795,6.02051282 11.0564103,6.32820513 L11.0564103,6.32820513 Z" id="Shape"></path>
                        <path d="M3.61025641,12.5128205 L4.43076923,15.7435897 L7.80512821,15.7435897 L10.3076923,6.86153846 C9.92820513,7.12820513 9.55897436,7.39487179 9.17948718,7.67179487 C8.46153846,8.25641026 7.73333333,8.85128205 7.01538462,9.43589744 L6.68717949,10.6769231 C6.44102564,11.5897436 6.35897436,12.3384615 6.35897436,12.3384615 L6.31794872,12.3384615 C6.31794872,12.3384615 6.25641026,11.5589744 6.05128205,10.6769231 L5.96923077,10.3384615 C5.21025641,11.0461538 4.45128205,11.7538462 3.69230769,12.4512821 C3.65128205,12.4717949 3.63076923,12.4923077 3.61025641,12.5128205 L3.61025641,12.5128205 Z" id="Shape"></path>
                        <path d="M3.61025641,12.5128205 L4.43076923,15.7435897 L7.80512821,15.7435897 L10.3076923,6.86153846 C9.92820513,7.12820513 9.55897436,7.39487179 9.17948718,7.67179487 C8.46153846,8.25641026 7.73333333,8.85128205 7.01538462,9.43589744 L6.68717949,10.6769231 C6.44102564,11.5897436 6.35897436,12.3384615 6.35897436,12.3384615 L6.31794872,12.3384615 C6.31794872,12.3384615 6.25641026,11.5589744 6.05128205,10.6769231 L5.96923077,10.3384615 C5.21025641,11.0461538 4.45128205,11.7538462 3.69230769,12.4512821 C3.65128205,12.4717949 3.63076923,12.4923077 3.61025641,12.5128205 L3.61025641,12.5128205 Z" id="Shape"></path>
                        <path d="M3.61025641,12.5128205 L4.43076923,15.7435897 L7.80512821,15.7435897 L10.3076923,6.86153846 C9.92820513,7.12820513 9.55897436,7.39487179 9.17948718,7.67179487 C8.46153846,8.25641026 7.73333333,8.85128205 7.01538462,9.43589744 L6.68717949,10.6769231 C6.44102564,11.5897436 6.35897436,12.3384615 6.35897436,12.3384615 L6.31794872,12.3384615 C6.31794872,12.3384615 6.25641026,11.5589744 6.05128205,10.6769231 L5.96923077,10.3384615 C5.21025641,11.0461538 4.45128205,11.7538462 3.69230769,12.4512821 C3.65128205,12.4717949 3.63076923,12.4923077 3.61025641,12.5128205 L3.61025641,12.5128205 Z" id="Shape"></path>
                        <path d="M3.61025641,12.5128205 L4.43076923,15.7435897 L7.80512821,15.7435897 L10.3076923,6.86153846 C9.92820513,7.12820513 9.55897436,7.39487179 9.17948718,7.67179487 C8.46153846,8.25641026 7.73333333,8.85128205 7.01538462,9.43589744 L6.68717949,10.6769231 C6.44102564,11.5897436 6.35897436,12.3384615 6.35897436,12.3384615 L6.31794872,12.3384615 C6.31794872,12.3384615 6.25641026,11.5589744 6.05128205,10.6769231 L5.96923077,10.3384615 C5.21025641,11.0461538 4.45128205,11.7538462 3.69230769,12.4512821 C3.65128205,12.4717949 3.63076923,12.4923077 3.61025641,12.5128205 L3.61025641,12.5128205 Z" id="Shape"></path>
                        <path d="M21.3333333,0.0102564103 L19.425641,0.0102564103 C18.3179487,0.0102564103 17.7230769,0.276923077 17.4974359,1.29230769 L17.2307692,2.46153846 C18.574359,1.72307692 19.9487179,1.03589744 21.3333333,0.38974359 L21.3333333,0.0102564103 L21.3333333,0.0102564103 Z" id="Shape"></path>
                        <path d="M21.3333333,0.0102564103 L19.425641,0.0102564103 C18.3179487,0.0102564103 17.7230769,0.276923077 17.4974359,1.29230769 L17.2307692,2.46153846 C18.574359,1.72307692 19.9487179,1.03589744 21.3333333,0.38974359 L21.3333333,0.0102564103 L21.3333333,0.0102564103 Z" id="Shape"></path>
                        <path d="M21.3333333,0.0102564103 L19.425641,0.0102564103 C18.3179487,0.0102564103 17.7230769,0.276923077 17.4974359,1.29230769 L17.2307692,2.46153846 C18.574359,1.72307692 19.9487179,1.03589744 21.3333333,0.38974359 L21.3333333,0.0102564103 L21.3333333,0.0102564103 Z" id="Shape"></path>
                        <path d="M21.3333333,0.0102564103 L19.425641,0.0102564103 C18.3179487,0.0102564103 17.7230769,0.276923077 17.4974359,1.29230769 L17.2307692,2.46153846 C18.574359,1.72307692 19.9487179,1.03589744 21.3333333,0.38974359 L21.3333333,0.0102564103 L21.3333333,0.0102564103 Z" id="Shape"></path>
                        <path d="M21.3333333,0.0102564103 L19.425641,0.0102564103 C18.3179487,0.0102564103 17.7230769,0.276923077 17.4974359,1.29230769 L17.2307692,2.46153846 C18.574359,1.72307692 19.9487179,1.03589744 21.3333333,0.38974359 L21.3333333,0.0102564103 L21.3333333,0.0102564103 Z" id="Shape"></path>
                        <path d="M21.3333333,0.0102564103 L19.425641,0.0102564103 C18.3179487,0.0102564103 17.7230769,0.276923077 17.4974359,1.29230769 L17.2307692,2.46153846 C18.574359,1.72307692 19.9487179,1.03589744 21.3333333,0.38974359 L21.3333333,0.0102564103 L21.3333333,0.0102564103 Z" id="Shape"></path>
                        <path d="M3.61025641,12.5128205 C3.63076923,12.4923077 3.65128205,12.4717949 3.67179487,12.4512821 C4.43076923,11.7435897 5.18974359,11.0358974 5.94871795,10.3384615 L5.34358974,7.69230769 C4.55384615,8.52307692 3.78461538,9.38461538 3.02564103,10.2564103 L3.61025641,12.5128205 L3.61025641,12.5128205 Z" id="Shape"></path>
                        <path d="M3.61025641,12.5128205 C3.63076923,12.4923077 3.65128205,12.4717949 3.67179487,12.4512821 C4.43076923,11.7435897 5.18974359,11.0358974 5.94871795,10.3384615 L5.34358974,7.69230769 C4.55384615,8.52307692 3.78461538,9.38461538 3.02564103,10.2564103 L3.61025641,12.5128205 L3.61025641,12.5128205 Z" id="Shape"></path>
                        <path d="M3.61025641,12.5128205 C3.63076923,12.4923077 3.65128205,12.4717949 3.67179487,12.4512821 C4.43076923,11.7435897 5.18974359,11.0358974 5.94871795,10.3384615 L5.34358974,7.69230769 C4.55384615,8.52307692 3.78461538,9.38461538 3.02564103,10.2564103 L3.61025641,12.5128205 L3.61025641,12.5128205 Z" id="Shape"></path>
                        <path d="M3.61025641,12.5128205 C3.63076923,12.4923077 3.65128205,12.4717949 3.67179487,12.4512821 C4.43076923,11.7435897 5.18974359,11.0358974 5.94871795,10.3384615 L5.34358974,7.69230769 C4.55384615,8.52307692 3.78461538,9.38461538 3.02564103,10.2564103 L3.61025641,12.5128205 L3.61025641,12.5128205 Z" id="Shape"></path>
                        <path d="M3.61025641,12.5128205 C3.63076923,12.4923077 3.65128205,12.4717949 3.67179487,12.4512821 C4.43076923,11.7435897 5.18974359,11.0358974 5.94871795,10.3384615 L5.34358974,7.69230769 C4.55384615,8.52307692 3.78461538,9.38461538 3.02564103,10.2564103 L3.61025641,12.5128205 L3.61025641,12.5128205 Z" id="Shape"></path>
                        <path d="M3.61025641,12.5128205 C3.63076923,12.4923077 3.65128205,12.4717949 3.67179487,12.4512821 C4.43076923,11.7435897 5.18974359,11.0358974 5.94871795,10.3384615 L5.34358974,7.69230769 C4.55384615,8.52307692 3.78461538,9.38461538 3.02564103,10.2564103 L3.61025641,12.5128205 L3.61025641,12.5128205 Z" id="Shape"></path>
                        <path d="M10.3076923,6.86153846 L10.3179487,6.83076923 C10.6051282,5.81538462 10.7384615,4.88205128 10.7384615,4.88205128 L10.7794872,4.88205128 C10.7794872,4.88205128 10.8717949,5.53846154 11.0564103,6.32820513 C11.4871795,6.02051282 11.9179487,5.71282051 12.3487179,5.40512821 C12.6461538,5.22051282 12.9333333,5.03589744 13.2307692,4.86153846 L12.3076923,1.25128205 C11.025641,2.35897436 9.75384615,3.4974359 8.49230769,4.62564103 C8.41025641,4.6974359 8.32820513,4.77948718 8.24615385,4.85128205 L7.01538462,9.43589744 C7.73333333,8.85128205 8.46153846,8.25641026 9.17948718,7.67179487 C9.54871795,7.40512821 9.92820513,7.13846154 10.3076923,6.86153846 L10.3076923,6.86153846 Z" id="Shape"></path>
                        <path d="M10.3076923,6.86153846 L10.3179487,6.83076923 C10.6051282,5.81538462 10.7384615,4.88205128 10.7384615,4.88205128 L10.7794872,4.88205128 C10.7794872,4.88205128 10.8717949,5.53846154 11.0564103,6.32820513 C11.4871795,6.02051282 11.9179487,5.71282051 12.3487179,5.40512821 C12.6461538,5.22051282 12.9333333,5.03589744 13.2307692,4.86153846 L12.3076923,1.25128205 C11.025641,2.35897436 9.75384615,3.4974359 8.49230769,4.62564103 C8.41025641,4.6974359 8.32820513,4.77948718 8.24615385,4.85128205 L7.01538462,9.43589744 C7.73333333,8.85128205 8.46153846,8.25641026 9.17948718,7.67179487 C9.54871795,7.40512821 9.92820513,7.13846154 10.3076923,6.86153846 L10.3076923,6.86153846 Z" id="Shape"></path>
                        <path d="M10.3076923,6.86153846 L10.3179487,6.83076923 C10.6051282,5.81538462 10.7384615,4.88205128 10.7384615,4.88205128 L10.7794872,4.88205128 C10.7794872,4.88205128 10.8717949,5.53846154 11.0564103,6.32820513 C11.4871795,6.02051282 11.9179487,5.71282051 12.3487179,5.40512821 C12.6461538,5.22051282 12.9333333,5.03589744 13.2307692,4.86153846 L12.3076923,1.25128205 C11.025641,2.35897436 9.75384615,3.4974359 8.49230769,4.62564103 C8.41025641,4.6974359 8.32820513,4.77948718 8.24615385,4.85128205 L7.01538462,9.43589744 C7.73333333,8.85128205 8.46153846,8.25641026 9.17948718,7.67179487 C9.54871795,7.40512821 9.92820513,7.13846154 10.3076923,6.86153846 L10.3076923,6.86153846 Z" id="Shape"></path>
                        <path d="M10.3076923,6.86153846 L10.3179487,6.83076923 C10.6051282,5.81538462 10.7384615,4.88205128 10.7384615,4.88205128 L10.7794872,4.88205128 C10.7794872,4.88205128 10.8717949,5.53846154 11.0564103,6.32820513 C11.4871795,6.02051282 11.9179487,5.71282051 12.3487179,5.40512821 C12.6461538,5.22051282 12.9333333,5.03589744 13.2307692,4.86153846 L12.3076923,1.25128205 C11.025641,2.35897436 9.75384615,3.4974359 8.49230769,4.62564103 C8.41025641,4.6974359 8.32820513,4.77948718 8.24615385,4.85128205 L7.01538462,9.43589744 C7.73333333,8.85128205 8.46153846,8.25641026 9.17948718,7.67179487 C9.54871795,7.40512821 9.92820513,7.13846154 10.3076923,6.86153846 L10.3076923,6.86153846 Z" id="Shape"></path>
                        <path d="M10.3076923,6.86153846 L10.3179487,6.83076923 C10.6051282,5.81538462 10.7384615,4.88205128 10.7384615,4.88205128 L10.7794872,4.88205128 C10.7794872,4.88205128 10.8717949,5.53846154 11.0564103,6.32820513 C11.4871795,6.02051282 11.9179487,5.71282051 12.3487179,5.40512821 C12.6461538,5.22051282 12.9333333,5.03589744 13.2307692,4.86153846 L12.3076923,1.25128205 C11.025641,2.35897436 9.75384615,3.4974359 8.49230769,4.62564103 C8.41025641,4.6974359 8.32820513,4.77948718 8.24615385,4.85128205 L7.01538462,9.43589744 C7.73333333,8.85128205 8.46153846,8.25641026 9.17948718,7.67179487 C9.54871795,7.40512821 9.92820513,7.13846154 10.3076923,6.86153846 L10.3076923,6.86153846 Z" id="Shape"></path>
                        <path d="M10.3076923,6.86153846 L10.3179487,6.83076923 C10.6051282,5.81538462 10.7384615,4.88205128 10.7384615,4.88205128 L10.7794872,4.88205128 C10.7794872,4.88205128 10.8717949,5.53846154 11.0564103,6.32820513 C11.4871795,6.02051282 11.9179487,5.71282051 12.3487179,5.40512821 C12.6461538,5.22051282 12.9333333,5.03589744 13.2307692,4.86153846 L12.3076923,1.25128205 C11.025641,2.35897436 9.75384615,3.4974359 8.49230769,4.62564103 C8.41025641,4.6974359 8.32820513,4.77948718 8.24615385,4.85128205 L7.01538462,9.43589744 C7.73333333,8.85128205 8.46153846,8.25641026 9.17948718,7.67179487 C9.54871795,7.40512821 9.92820513,7.13846154 10.3076923,6.86153846 L10.3076923,6.86153846 Z" id="Shape"></path>
                    </g>
                </g>
            </g>
        </g>
    </g>
</svg>